<?xml version="1.0" encoding="UTF-8"?>
<svg version="1.1" xmlns="http://www.w3.org/2000/svg" width="279" height="344">
<path d="M0 0 C0.33 3.3 0.66 6.6 1 10 C3.475 7.03 3.475 7.03 6 4 C6.99 4.33 7.98 4.66 9 5 C9.87548828 7.19311523 9.87548828 7.19311523 10.5703125 10.05859375 C10.95509766 11.59676758 10.95509766 11.59676758 11.34765625 13.16601562 C11.73244141 14.78540039 11.73244141 14.78540039 12.125 16.4375 C12.64679839 18.56160125 13.17015869 20.6853196 13.6953125 22.80859375 C13.92234863 23.75532959 14.14938477 24.70206543 14.38330078 25.67749023 C14.91653494 28.00197924 14.91653494 28.00197924 16 30 C16.99 27.03 17.98 24.06 19 21 C23.68469864 23.34234932 24.7113133 25.68209113 26.8125 30.1875 C27.15506836 30.89567871 27.49763672 31.60385742 27.85058594 32.33349609 C29.58272817 35.93268011 31.26070716 39.55656921 32.93359375 43.18359375 C33.39318481 44.17806519 33.39318481 44.17806519 33.86206055 45.19262695 C34.70309748 47.02292867 35.53161385 48.85896858 36.359375 50.6953125 C38.02137461 54.04305458 39.86315255 56.94337909 42 60 C42.66 56.04 43.32 52.08 44 48 C44.99 48 45.98 48 47 48 C52.79773045 58.26404055 57.86792905 68.57181748 62 79.625 C62.55965454 81.11580078 62.55965454 81.11580078 63.13061523 82.63671875 C72.83709096 109.29197016 66.34115228 136.36935995 60.4375 163.3125 C60.25227783 164.17029053 60.06705566 165.02808105 59.8762207 165.91186523 C58.55622638 171.6125375 56.55091231 176.73800365 54 182 C55.11375 181.2265625 55.11375 181.2265625 56.25 180.4375 C59 179 59 179 61.125 179.0625 C63.57417551 180.28708775 64.57034369 181.68531836 66 184 C68.57082055 191.71246166 66.7045484 199.77400323 64.75 207.4375 C64.52256104 208.35474854 64.29512207 209.27199707 64.06079102 210.21704102 C58.54716485 231.96855677 58.54716485 231.96855677 51 237 C48.66800612 237.07905064 46.33167378 237.08798769 44 237 C41.81446359 241.21496307 39.81487138 245.37481254 38.125 249.8125 C28.1797064 274.77099542 4.82214548 293.44624615 -19.24609375 304.44140625 C-35.32820647 311.33024429 -53.70669259 310.97544987 -70 305 C-78.40563239 301.57698344 -85.21480214 296.97842129 -92 291 C-92.969375 290.15179688 -93.93875 289.30359375 -94.9375 288.4296875 C-116.00596823 269.70590869 -127.08349654 249.77138195 -135 223 C-136.90845703 222.814375 -136.90845703 222.814375 -138.85546875 222.625 C-142.02966147 222.31626393 -142.79875994 222.17404546 -145.3125 220 C-151.6203358 208.78606968 -152.15187844 195.61185755 -152.3125 183 C-152.33014404 182.21125488 -152.34778809 181.42250977 -152.3659668 180.60986328 C-152.35886422 174.533931 -151.06203529 170.14214902 -147.6875 165 C-146 164 -146 164 -142.875 164.25 C-140 165 -140 165 -139 166 C-139.28942213 162.29148815 -139.58207412 158.58323659 -139.875 154.875 C-139.96378418 153.73643555 -140.05256836 152.59787109 -140.14404297 151.42480469 C-140.5657178 146.0964356 -141.00517172 140.7753715 -141.578125 135.4609375 C-147.74344069 77.7365526 -147.74344069 77.7365526 -133 58 C-132.50371094 57.52433594 -132.00742188 57.04867187 -131.49609375 56.55859375 C-129.51169247 54.4912932 -128.42850131 52.23461202 -127.125 49.6875 C-124.7885197 45.28323463 -122.36622682 41.66324684 -119 38 C-118.01 38.33 -117.02 38.66 -116 39 C-114.60955102 42.87862084 -114 45.86462003 -114 50 C-113.34 50 -112.68 50 -112 50 C-111.75636719 49.10796875 -111.51273438 48.2159375 -111.26171875 47.296875 C-107.09268121 36.403167 -92.91994038 27.75403824 -82.70898438 22.9140625 C-76.89484269 20.37663561 -70.95431005 18.18248657 -65 16 C-62.18288126 14.95310773 -59.36783005 13.90111512 -56.55517578 12.84228516 C-54.78720114 12.17846844 -53.01622198 11.52257313 -51.24169922 10.87646484 C-46.17048072 8.99040827 -41.67391889 6.78465946 -37.11206055 3.86206055 C-35 3 -35 3 -30 4 C-30 7.63 -30 11.26 -30 15 C-20.75740013 11.99915589 -12.83456329 8.07423137 -5.3671875 1.78125 C-3 0 -3 0 0 0 Z " fill="#E2C5B3" transform="translate(182,14)"/>
<path d="M0 0 C0.33 3.3 0.66 6.6 1 10 C3.475 7.03 3.475 7.03 6 4 C6.99 4.33 7.98 4.66 9 5 C9.87548828 7.19311523 9.87548828 7.19311523 10.5703125 10.05859375 C10.95509766 11.59676758 10.95509766 11.59676758 11.34765625 13.16601562 C11.73244141 14.78540039 11.73244141 14.78540039 12.125 16.4375 C12.64679839 18.56160125 13.17015869 20.6853196 13.6953125 22.80859375 C13.92234863 23.75532959 14.14938477 24.70206543 14.38330078 25.67749023 C14.91653494 28.00197924 14.91653494 28.00197924 16 30 C16.99 27.03 17.98 24.06 19 21 C23.68469864 23.34234932 24.7113133 25.68209113 26.8125 30.1875 C27.15506836 30.89567871 27.49763672 31.60385742 27.85058594 32.33349609 C29.58272817 35.93268011 31.26070716 39.55656921 32.93359375 43.18359375 C33.39318481 44.17806519 33.39318481 44.17806519 33.86206055 45.19262695 C34.70309748 47.02292867 35.53161385 48.85896858 36.359375 50.6953125 C38.02137461 54.04305458 39.86315255 56.94337909 42 60 C42.66 56.04 43.32 52.08 44 48 C44.99 48 45.98 48 47 48 C52.79773045 58.26404055 57.86792905 68.57181748 62 79.625 C62.55965454 81.11580078 62.55965454 81.11580078 63.13061523 82.63671875 C72.84576774 109.31579774 66.31853265 136.40497 60.4375 163.375 C60.25227783 164.24116943 60.06705566 165.10733887 59.8762207 165.99975586 C58.63339152 171.3885563 57.02753283 177.97246717 53 182 C52.72685159 183.58269244 52.50917409 185.1750514 52.31640625 186.76953125 C52.19330078 187.74083984 52.07019531 188.71214844 51.94335938 189.71289062 C51.69092955 191.76728102 51.44090061 193.82196795 51.19335938 195.87695312 C51.06896484 196.85212891 50.94457031 197.82730469 50.81640625 198.83203125 C50.70756104 199.72639893 50.59871582 200.6207666 50.48657227 201.54223633 C49.9996971 204.00153003 49.2292287 205.82774069 48 208 C47.34 207.67 46.68 207.34 46 207 C45.97252266 204.39575884 45.95293627 201.79181958 45.9375 199.1875 C45.92912109 198.46884766 45.92074219 197.75019531 45.91210938 197.00976562 C45.89399732 192.89832842 46.07545887 188.88034171 46.4921875 184.7890625 C48.76379466 161.54908501 51.47183526 124.69210959 35.54296875 105.21875 C26.73053534 96.81370403 13.29934334 93.73907369 1.4609375 93.65625 C-0.17838581 93.62770818 -1.81770871 93.59914286 -3.45703125 93.57055664 C-4.30217285 93.55928741 -5.14731445 93.54801819 -6.01806641 93.53640747 C-18.02790288 93.36868253 -30.03400232 93.16790394 -42 92.0625 C-42.83869629 91.98773438 -43.67739258 91.91296875 -44.54150391 91.8359375 C-47.97954736 91.48486715 -50.98471538 91.00469247 -54.31054688 89.98364258 C-59.95736403 88.47814851 -65.57454397 88.62805718 -71.37597656 88.62939453 C-73.46765489 88.62506692 -75.55713766 88.58881386 -77.6484375 88.55078125 C-87.63187176 88.46447338 -100.04527713 88.63967477 -107.86132812 95.51806641 C-109.99907743 97.79392538 -109.99907743 97.79392538 -111 100 C-111.66 100 -112.32 100 -113 100 C-113 100.99 -113 101.98 -113 103 C-113.66 103 -114.32 103 -115 103 C-115.18755859 103.86238281 -115.18755859 103.86238281 -115.37890625 104.7421875 C-116.20777832 107.75531993 -117.57908594 110.40272071 -118.96484375 113.1953125 C-120.17261784 116.46769663 -120.7583008 119.68872139 -121.40405273 123.11035156 C-122.53121103 128.57575329 -124.07974777 133.93484811 -125.5625 139.3125 C-126.19027638 141.5998563 -126.81663399 143.88760258 -127.44140625 146.17578125 C-127.71670166 147.17520752 -127.99199707 148.17463379 -128.27563477 149.2043457 C-129.55370606 154.13700306 -130.18508476 158.77975679 -130.46484375 163.875 C-130.54283203 165.18984375 -130.62082031 166.5046875 -130.70117188 167.859375 C-130.82081003 169.9327755 -130.93783592 172.00623541 -131.04956055 174.08007812 C-131.15964332 176.09547642 -131.28086656 178.1102564 -131.40234375 180.125 C-131.46929443 181.32382813 -131.53624512 182.52265625 -131.60522461 183.7578125 C-131.98198183 186.8520215 -132.69235077 189.18770847 -134 192 C-134.66 192 -135.32 192 -136 192 C-136.01981934 191.30438965 -136.03963867 190.6087793 -136.06005859 189.89208984 C-136.15572124 186.71936679 -136.26523304 183.54726513 -136.375 180.375 C-136.4059375 179.28058594 -136.436875 178.18617188 -136.46875 177.05859375 C-136.50742188 175.99511719 -136.54609375 174.93164062 -136.5859375 173.8359375 C-136.6173584 172.86188965 -136.6487793 171.8878418 -136.68115234 170.88427734 C-137.03326477 167.69908886 -137.98173955 165.03295629 -139 162 C-139.33484211 159.77807982 -139.60333217 157.54547729 -139.81640625 155.30859375 C-139.94080078 154.03306641 -140.06519531 152.75753906 -140.19335938 151.44335938 C-140.31646805 150.10807861 -140.4395147 148.77279213 -140.5625 147.4375 C-140.68818359 146.14263672 -140.81386719 144.84777344 -140.94335938 143.51367188 C-141.31104743 139.67701069 -141.6603576 135.83923936 -142 132 C-142.09933838 130.8877002 -142.19867676 129.77540039 -142.30102539 128.62939453 C-146.67753577 76.30966122 -146.67753577 76.30966122 -133 58 C-132.25556641 57.28650391 -132.25556641 57.28650391 -131.49609375 56.55859375 C-129.51169247 54.4912932 -128.42850131 52.23461202 -127.125 49.6875 C-124.7885197 45.28323463 -122.36622682 41.66324684 -119 38 C-117.515 38.495 -117.515 38.495 -116 39 C-114.60955102 42.87862084 -114 45.86462003 -114 50 C-113.34 50 -112.68 50 -112 50 C-111.75636719 49.10796875 -111.51273438 48.2159375 -111.26171875 47.296875 C-107.09268121 36.403167 -92.91994038 27.75403824 -82.70898438 22.9140625 C-76.89484269 20.37663561 -70.95431005 18.18248657 -65 16 C-62.18288126 14.95310773 -59.36783005 13.90111512 -56.55517578 12.84228516 C-54.78720114 12.17846844 -53.01622198 11.52257313 -51.24169922 10.87646484 C-46.17048072 8.99040827 -41.67391889 6.78465946 -37.11206055 3.86206055 C-35 3 -35 3 -30 4 C-30 7.63 -30 11.26 -30 15 C-20.75740013 11.99915589 -12.83456329 8.07423137 -5.3671875 1.78125 C-3 0 -3 0 0 0 Z " fill="#282521" transform="translate(182,14)"/>
<path d="M0 0 C0 0.66 0 1.32 0 2 C0.66 2 1.32 2 2 2 C2.3403125 3.175625 2.3403125 3.175625 2.6875 4.375 C3.74743607 7.14775207 3.74743607 7.14775207 6.20483398 8.11303711 C9.18651168 9.05918394 11.92508564 9.49016156 15.03515625 9.81640625 C16.17404297 9.94080078 17.31292969 10.06519531 18.48632812 10.19335938 C19.66646484 10.31517578 20.84660156 10.43699219 22.0625 10.5625 C24.40780221 10.81145696 26.75286693 11.06266418 29.09765625 11.31640625 C30.13414307 11.42412354 31.17062988 11.53184082 32.23852539 11.64282227 C35 12 35 12 36.89750671 12.50949097 C39.12162923 13.02837594 41.11957318 13.15834415 43.40136719 13.20532227 C44.6922525 13.2352401 44.6922525 13.2352401 46.00921631 13.26576233 C47.38910736 13.29083107 47.38910736 13.29083107 48.796875 13.31640625 C49.74564514 13.33718735 50.69441528 13.35796844 51.67193604 13.37937927 C54.69788482 13.44467934 57.7239192 13.50366888 60.75 13.5625 C62.80339421 13.6057038 64.85677982 13.64931869 66.91015625 13.69335938 C71.9400168 13.80034073 76.96996332 13.90166323 82 14 C83.44189329 18.48262064 82.1201342 20.83283968 80 25 C79.2575 25.845625 78.515 26.69125 77.75 27.5625 C75.64409646 29.91307611 75.64409646 29.91307611 76.375 33 C76.58125 33.99 76.7875 34.98 77 36 C76.375 38.75 76.375 38.75 75 41 C73.34015202 41.68346682 71.67163195 42.34588315 70 43 C68.72419299 44.11702753 67.47682348 45.26688556 66.25 46.4375 C59.79486429 52.26286637 52.46069903 53.46530898 44 54 C42.39125 54.1546875 42.39125 54.1546875 40.75 54.3125 C27.20071378 53.18339281 17.66164964 46.67133227 8.3125 37.30859375 C6.02785836 34.8775315 6.02785836 34.8775315 3 33 C0.31319984 25.94020096 -1.39792411 18.52594869 -2 11 C-2.598125 10.855625 -3.19625 10.71125 -3.8125 10.5625 C-5.56150404 10.1127561 -7.28677023 9.57107659 -9 9 C-9.1875 5.625 -9.1875 5.625 -9 2 C-5.5647952 -0.29013653 -4.014669 -0.17842973 0 0 Z " fill="#C89E91" transform="translate(96,246)"/>
<path d="M0 0 C0.66 0 1.32 0 2 0 C1.979375 0.721875 1.95875 1.44375 1.9375 2.1875 C1.9078165 4.93628696 1.9078165 4.93628696 2.50927734 7.31005859 C3.04619751 10.25323591 3.03560554 12.86390962 2.9140625 15.8515625 C2.84832031 17.49898437 2.84832031 17.49898437 2.78125 19.1796875 C2.7296875 20.31664062 2.678125 21.45359375 2.625 22.625 C2.55925781 24.34203125 2.55925781 24.34203125 2.4921875 26.09375 C2.13171749 34.60484754 2.13171749 34.60484754 1 38 C1.31802943 39.66965451 1.64984951 41.33678518 2 43 C1.67 43.33 1.34 43.66 1 44 C1.12375 45.19625 1.2475 46.3925 1.375 47.625 C1.45807492 55.07800686 -2.55746622 61.60050723 -6 68 C-6.52851563 68.98613281 -7.05703125 69.97226562 -7.6015625 70.98828125 C-19.56259476 91.34560463 -44.96168929 109.59622729 -67.38671875 116.37890625 C-86.18701584 120.84713829 -105.45357316 118.08700137 -122 108 C-125.52762906 105.53445281 -128.77299897 102.84504947 -132 100 C-132.49032715 99.56993652 -132.9806543 99.13987305 -133.48583984 98.69677734 C-137.06665532 95.54040472 -140.55056309 92.29946139 -144 89 C-144.76441406 88.28585937 -145.52882813 87.57171875 -146.31640625 86.8359375 C-149.58451584 83.52161222 -151.40264219 81.25430616 -151.5 76.5 C-151.37444873 74.99600045 -151.20726939 73.49493049 -151 72 C-150.9175 71.22527344 -150.835 70.45054687 -150.75 69.65234375 C-150.53682073 67.7637087 -150.27357614 65.88083595 -150 64 C-149.67 64 -149.34 64 -149 64 C-148.855625 64.928125 -148.71125 65.85625 -148.5625 66.8125 C-148.07899889 70.00725111 -148.07899889 70.00725111 -147 73 C-144.98491642 73.73323796 -144.98491642 73.73323796 -143 74 C-143 75.32 -143 76.64 -143 78 C-142.34 78 -141.68 78 -141 78 C-141 78.66 -141 79.32 -141 80 C-140.34 80 -139.68 80 -139 80 C-138.566875 81.134375 -138.13375 82.26875 -137.6875 83.4375 C-137.130625 84.613125 -136.57375 85.78875 -136 87 C-135.01 87.33 -134.02 87.66 -133 88 C-133 88.99 -133 89.98 -133 91 C-132.67 90.34 -132.34 89.68 -132 89 C-131.34 89 -130.68 89 -130 89 C-129.938125 89.5775 -129.87625 90.155 -129.8125 90.75 C-128.41737476 94.61342373 -124.9473178 96.33431722 -121.6875 98.625 C-121.130625 99.07875 -120.57375 99.5325 -120 100 C-120 100.66 -120 101.32 -120 102 C-119.01 102 -118.02 102 -117 102 C-117 102.99 -117 103.98 -117 105 C-116.0925 104.95875 -115.185 104.9175 -114.25 104.875 C-111.10359074 104.99601574 -109.57843802 105.28104132 -107 107 C-106.67 107.66 -106.34 108.32 -106 109 C-103.64144703 109.4516378 -101.38351037 109.76079466 -99 110 C-98.13632813 110.0928125 -97.27265625 110.185625 -96.3828125 110.28125 C-91.70090809 110.80383764 -91.70090809 110.80383764 -87 111 C-87 111.66 -87 112.32 -87 113 C-85.989375 112.67 -84.97875 112.34 -83.9375 112 C-81.19482013 111.19982177 -79.44635579 111.0098865 -76.5 111.0625 C-72.31252031 110.98772358 -69.75580518 109.81083464 -66 108 C-64.9275 107.649375 -63.855 107.29875 -62.75 106.9375 C-58.01569402 104.91907937 -54.59089091 101.16757707 -50.89453125 97.68359375 C-48.15590973 95.14454789 -45.34603501 92.7783153 -42.4375 90.4375 C-38.71130286 87.41799542 -35.03942554 84.35471039 -31.4375 81.1875 C-30.63183594 80.47980469 -29.82617188 79.77210938 -28.99609375 79.04296875 C-27.07292352 77.07463601 -26.1212585 75.47719901 -25 73 C-23 71 -23 71 -21 69 C-20.01 67.515 -20.01 67.515 -19 66 C-17.18677617 63.28016426 -15.2945695 61.2945695 -13 59 C-11.33912085 56.13959703 -10.19772449 53.07986296 -9 50 C-8.34 50 -7.68 50 -7 50 C-7.0309375 48.6078125 -7.0309375 48.6078125 -7.0625 47.1875 C-7 44 -7 44 -6 41 C-6.87483915 38.83284443 -6.87483915 38.83284443 -8 37 C-7.01 36.67 -6.02 36.34 -5 36 C-5.0825 35.05125 -5.165 34.1025 -5.25 33.125 C-5.27760257 29.69538076 -4.39778356 27.30298236 -3 24.1875 C-0.78243103 19.07063591 -0.35167787 14.52668041 -1 9 C-1.33 8.34 -1.66 7.68 -2 7 C-1.39239518 4.6505947 -0.72870472 2.31470912 0 0 Z " fill="#A98670" transform="translate(222,205)"/>
<path d="M0 0 C0.99 0 1.98 0 3 0 C3.33 0.99 3.66 1.98 4 3 C8.36351553 6.47335836 13.40802125 7.13720807 18.75 8.125 C20.03390625 8.37830078 20.03390625 8.37830078 21.34375 8.63671875 C31.81230118 10.65112178 41.89812302 11.18209484 52.5625 11.1875 C53.83802734 11.19974609 55.11355469 11.21199219 56.42773438 11.22460938 C65.893886 11.25487216 65.893886 11.25487216 75 9 C75.33 8.01 75.66 7.02 76 6 C77.65 6 79.3 6 81 6 C80.8350033 12.43487123 77.36491488 16.60461451 73 21 C68.41943476 24.46934208 63.73972339 27.92464199 58 29 C58.33 27.35 58.66 25.7 59 24 C58.24493164 24.00523682 57.48986328 24.01047363 56.71191406 24.01586914 C53.22461816 24.03691225 49.73733569 24.0497459 46.25 24.0625 C44.46916016 24.07506836 44.46916016 24.07506836 42.65234375 24.08789062 C35.04697478 24.10867032 27.56658475 23.77144376 20 23 C20 23.66 20 24.32 20 25 C12.20757762 22.63865989 5.92554919 15.96063834 2 9 C1.03339183 6.02617679 0.41575127 3.09663011 0 0 Z " fill="#190B09" transform="translate(96,256)"/>
<path d="M0 0 C0.66 0.66 1.32 1.32 2 2 C1.79503906 2.56847656 1.59007813 3.13695312 1.37890625 3.72265625 C-0.29025897 8.50653168 -1.30907065 12.96608614 -2 18 C-2.31710938 18.598125 -2.63421875 19.19625 -2.9609375 19.8125 C-4.27512337 22.57920709 -4.62387708 25.16137047 -5.0625 28.1875 C-5.898017 33.898017 -5.898017 33.898017 -7 35 C-7.19313431 37.14583178 -7.32424166 39.29729495 -7.4296875 41.44921875 C-7.50340515 42.78583502 -7.57764087 44.1224228 -7.65234375 45.45898438 C-7.76536094 47.56741541 -7.87444735 49.67580596 -7.97412109 51.78491211 C-8.07239572 53.81967636 -8.18739963 55.8529733 -8.3046875 57.88671875 C-8.36640137 59.10576904 -8.42811523 60.32481934 -8.49169922 61.58081055 C-9.18289934 66.23030992 -10.66629781 69.66629781 -14 73 C-14.17478259 75.56249057 -14.23395354 78.00290984 -14.1875 80.5625 C-14.18105469 81.28179687 -14.17460938 82.00109375 -14.16796875 82.7421875 C-14.09386158 87.88337216 -13.72767283 92.90629022 -13 98 C-20.27628362 98.60635697 -20.27628362 98.60635697 -23.3125 96.0625 C-29.54475129 84.75211802 -30.15107384 71.67503401 -30.3125 59 C-30.33014404 58.21125488 -30.34778809 57.42250977 -30.3659668 56.60986328 C-30.35886422 50.533931 -29.06203529 46.14214902 -25.6875 41 C-24 40 -24 40 -21.0625 40.125 C-17.90073783 41.02836062 -16.33392133 41.71861366 -14 44 C-13.54589844 46.54370117 -13.54589844 46.54370117 -13.609375 49.54296875 C-13.62871094 51.15268555 -13.62871094 51.15268555 -13.6484375 52.79492188 C-13.68195312 53.91447266 -13.71546875 55.03402344 -13.75 56.1875 C-13.76804687 57.31865234 -13.78609375 58.44980469 -13.8046875 59.61523438 C-13.85187348 62.41100376 -13.91769405 65.20507972 -14 68 C-13.01 67.505 -13.01 67.505 -12 67 C-10.53069314 60.95951623 -9.99634329 54.67133154 -9.86328125 48.46484375 C-9.49567677 31.61026458 -5.52516851 15.88671107 0 0 Z " fill="#BC9C88" transform="translate(60,138)"/>
<path d="M0 0 C3.98494147 4.42771275 4.23599151 8.51527212 4.17382812 14.22705078 C3.88945902 18.76337709 2.87062413 23.04369764 1.75 27.4375 C1.52256104 28.35474854 1.29512207 29.27199707 1.06079102 30.21704102 C-4.45283515 51.96855677 -4.45283515 51.96855677 -12 57 C-14.73990408 56.96856707 -17.28417854 56.44521663 -20 56 C-19.01 55.505 -19.01 55.505 -18 55 C-17.543411 52.43952051 -17.20208009 49.95638144 -16.9375 47.375 C-16.78052109 45.96608185 -16.62297318 44.55722698 -16.46484375 43.1484375 C-16.38790283 42.45685547 -16.31096191 41.76527344 -16.23168945 41.05273438 C-15.19784548 31.89302928 -15.19784548 31.89302928 -12 28 C-12 27.01 -12 26.02 -12 25 C-12.66 25.33 -13.32 25.66 -14 26 C-13.69940074 22.0564772 -13.32547448 18.12331043 -12.9375 14.1875 C-12.85306641 13.06794922 -12.76863281 11.94839844 -12.68164062 10.79492188 C-11.83574484 2.7468277 -11.83574484 2.7468277 -9.39599609 0.56665039 C-6.16172035 -0.86785989 -3.19195379 -1.70997525 0 0 Z " fill="#BA9A85" transform="translate(245,194)"/>
<path d="M0 0 C5.52929254 3.77214258 10.17247267 8.38060968 12 15 C11.505 16.485 11.505 16.485 11 18 C9.68 16.02 8.36 14.04 7 12 C6.9071875 13.546875 6.9071875 13.546875 6.8125 15.125 C5.81451343 19.88462827 4.29509133 21.53592963 1 25 C-4.92612881 23.96224472 -10.74994096 22.61529213 -16.5625 21.0625 C-18.35880859 20.58490234 -18.35880859 20.58490234 -20.19140625 20.09765625 C-21.11824219 19.73542969 -22.04507813 19.37320313 -23 19 C-24.69465856 13.91602433 -24.87399264 8.90689304 -22.625 4 C-21 2 -21 2 -19 1 C-25.86101648 1.5020256 -30.05412604 4.75476081 -34.4375 9.8125 C-34.953125 10.534375 -35.46875 11.25625 -36 12 C-35.75405067 6.95803875 -34.13833114 4.13424331 -30.7890625 0.546875 C-22.14740961 -6.92494715 -9.32151242 -5.24045225 0 0 Z " fill="#573F22" transform="translate(106,181)"/>
<path d="M0 0 C1.77697266 -0.02513672 1.77697266 -0.02513672 3.58984375 -0.05078125 C9.6191484 0.57995591 13.33564189 3.18597682 17.4375 7.5 C18.12585938 8.21542969 18.81421875 8.93085938 19.5234375 9.66796875 C20.03132813 10.21066406 20.53921875 10.75335938 21.0625 11.3125 C20.7325 12.3025 20.4025 13.2925 20.0625 14.3125 C17.0925 11.6725 14.1225 9.0325 11.0625 6.3125 C10.7325 6.6425 10.4025 6.9725 10.0625 7.3125 C10.206875 7.9725 10.35125 8.6325 10.5 9.3125 C11.51020957 14.70028439 12.16813129 19.65405307 9.0625 24.3125 C6.54052734 24.83666992 6.54052734 24.83666992 3.3984375 25.04296875 C1.71621094 25.16381836 1.71621094 25.16381836 0 25.28710938 C-1.175625 25.35736328 -2.35125 25.42761719 -3.5625 25.5 C-5.33753906 25.6227832 -5.33753906 25.6227832 -7.1484375 25.74804688 C-10.0775168 25.94883054 -13.00684939 26.13640805 -15.9375 26.3125 C-16.43981221 25.05454864 -16.93440792 23.79351441 -17.42578125 22.53125 C-17.70204346 21.82935547 -17.97830566 21.12746094 -18.26293945 20.40429688 C-19.14958109 17.65484137 -19.15225303 15.17587379 -18.9375 12.3125 C-20.0821875 13.4571875 -20.0821875 13.4571875 -21.25 14.625 C-23.14583333 16.52083333 -25.04166667 18.41666667 -26.9375 20.3125 C-26.53705446 13.90537142 -21.51839906 8.48702898 -16.9375 4.3125 C-14.5625 3.25 -14.5625 3.25 -11.9375 2.3125 C-10.83341797 1.79816406 -10.83341797 1.79816406 -9.70703125 1.2734375 C-6.35367498 0.10993166 -3.54561383 0.01154923 0 0 Z " fill="#5E4524" transform="translate(187.9375,184.6875)"/>
<path d="M0 0 C0.81766395 2.45299186 1.02627816 3.87189398 0.5 6.4375 C-0.05544555 9.28415843 0.37785558 11.2003501 1 14 C0.67 14.33 0.34 14.66 0 15 C0.12375 16.19625 0.2475 17.3925 0.375 18.625 C0.45807492 26.07800686 -3.55746622 32.60050723 -7 39 C-7.52851563 39.98613281 -8.05703125 40.97226562 -8.6015625 41.98828125 C-20.56259476 62.34560463 -45.96168929 80.59622729 -68.38671875 87.37890625 C-74.5684965 88.848118 -80.42314344 89.18268504 -86.75 89.1875 C-87.61238281 89.19974609 -88.47476563 89.21199219 -89.36328125 89.22460938 C-90.18699219 89.22654297 -91.01070312 89.22847656 -91.859375 89.23046875 C-92.98037598 89.23663208 -92.98037598 89.23663208 -94.12402344 89.24291992 C-96 89 -96 89 -98 87 C-95.46568313 84.46568313 -94.4979053 84.72803047 -90.984375 84.65625 C-89.47810547 84.61177734 -89.47810547 84.61177734 -87.94140625 84.56640625 C-86.88824219 84.54449219 -85.83507812 84.52257812 -84.75 84.5 C-75.6905884 84.36323815 -75.6905884 84.36323815 -67 82 C-64.125 81.875 -64.125 81.875 -62 82 C-62 81.34 -62 80.68 -62 80 C-60.989375 79.5875 -59.97875 79.175 -58.9375 78.75 C-50.81023899 75.24124274 -43.51739189 70.51739189 -37.25 64.25 C-35 62 -35 62 -32.8125 60.9375 C-30.85352235 60.15906168 -30.85352235 60.15906168 -30.1796875 58.2265625 C-28.66551308 55.36868362 -26.67905357 53.63734383 -24.3125 51.4375 C-17.36208338 44.61784375 -12.29835305 37.54700497 -10 28 C-9.3569541 26.51041266 -8.6883066 25.03172173 -8 23.5625 C-6.41972708 20.1103909 -5.33444441 16.82039666 -4.5 13.125 C-3.90004753 10.575202 -3.17967511 8.0744773 -2.4375 5.5625 C-2.18871094 4.71816406 -1.93992187 3.87382812 -1.68359375 3.00390625 C-1 1 -1 1 0 0 Z " fill="#A27A66" transform="translate(223,234)"/>
<path d="M0 0 C7.89338535 -0.23229041 15.54499547 0.4842435 23.375 1.4375 C25.11716797 1.63956055 25.11716797 1.63956055 26.89453125 1.84570312 C35.50365642 2.86585958 35.50365642 2.86585958 37.89254761 3.51147461 C40.11798481 4.02734988 42.11896732 4.15833168 44.40136719 4.20532227 C45.6922525 4.2352401 45.6922525 4.2352401 47.00921631 4.26576233 C48.38910736 4.29083107 48.38910736 4.29083107 49.796875 4.31640625 C50.74564514 4.33718735 51.69441528 4.35796844 52.67193604 4.37937927 C55.69788482 4.44467934 58.7239192 4.50366888 61.75 4.5625 C63.80339421 4.6057038 65.85677982 4.64931869 67.91015625 4.69335938 C72.9400168 4.80034073 77.96996332 4.90166323 83 5 C84.125 8.75 84.125 8.75 83 11 C82.01 10.505 82.01 10.505 81 10 C81.33 9.01 81.66 8.02 82 7 C78.41693618 7.42153551 78.41693618 7.42153551 75.5625 9.4375 C71.06327171 13.93672829 64.12177813 13.28265408 58.22583008 13.32885742 C56.97568115 13.32345947 55.72553223 13.31806152 54.4375 13.3125 C53.14932373 13.30903564 51.86114746 13.30557129 50.53393555 13.30200195 C13.55564597 12.88646396 13.55564597 12.88646396 4 4 C4 3.01 4 2.02 4 1 C2.68 1.33 1.36 1.66 0 2 C0 1.34 0 0.68 0 0 Z " fill="#8D5542" transform="translate(95,255)"/>
<path d="M0 0 C1.32 0.33 2.64 0.66 4 1 C3.85820313 1.66386719 3.71640625 2.32773438 3.5703125 3.01171875 C3.1137781 5.75492986 2.85551105 8.22071258 3 11 C5.7658076 14.76457146 7.30332104 15.69320326 11.8515625 16.515625 C14.57520419 16.78306269 17.26448587 16.94645791 20 17 C20 16.34 20 15.68 20 15 C23 13 23 13 26 13 C26 9.7 26 6.4 26 3 C30.66804506 4.47411949 30.66804506 4.47411949 32.13671875 6.80078125 C33.59950141 10.52723663 33.68996013 14.07145149 33 18 C30.8125 20.8125 30.8125 20.8125 28 23 C27.29875 23.763125 26.5975 24.52625 25.875 25.3125 C21.44171766 27.91464398 17.02080168 27.31654792 12 27 C12 26.34 12 25.68 12 25 C11.09636719 24.80664062 10.19273437 24.61328125 9.26171875 24.4140625 C8.08222656 24.15367187 6.90273437 23.89328125 5.6875 23.625 C3.92986328 23.24214844 3.92986328 23.24214844 2.13671875 22.8515625 C-1 22 -1 22 -4 20 C-4.90935902 14.14241714 -5.02736279 7.92343707 -2 2.6875 C-1.01 1.3571875 -1.01 1.3571875 0 0 Z " fill="#C7A995" transform="translate(124,225)"/>
<path d="M0 0 C2.12586646 0.02389444 4.2504952 0.02049419 6.37646484 0.01391602 C12.8735689 0.0402111 18.47244305 0.40776674 24.73193359 2.33618164 C27.71522931 2.87265731 30.71345331 3.12893647 33.73193359 3.39868164 C35.10115967 3.52762817 35.10115967 3.52762817 36.49804688 3.65917969 C43.09658671 4.21037666 49.66932394 4.42257995 56.28662109 4.50805664 C57.55363861 4.52750587 57.55363861 4.52750587 58.84625244 4.54734802 C63.08876835 4.61068373 67.32879202 4.64859003 71.57177734 4.64306641 C85.86510483 4.74345373 100.21974627 7.07859936 111.36083984 16.75024414 C124.39694104 30.01504886 122.96519793 53.08462931 123.73193359 70.33618164 C123.40193359 70.33618164 123.07193359 70.33618164 122.73193359 70.33618164 C122.63170898 69.46517822 122.53148437 68.5941748 122.42822266 67.69677734 C122.04272966 64.39845203 121.64620928 61.10181265 121.24267578 57.80566406 C121.07172301 56.39146205 120.90490813 54.97675234 120.74267578 53.56152344 C118.73253633 34.76118877 118.73253633 34.76118877 108.73193359 19.33618164 C107.96880859 18.42868164 107.20568359 17.52118164 106.41943359 16.58618164 C102.81524641 13.56872261 99.21376742 12.55640695 94.73193359 11.33618164 C93.72646484 11.04420898 93.72646484 11.04420898 92.70068359 10.74633789 C91.04726369 10.26642576 89.38983019 9.80039269 87.73193359 9.33618164 C86.74193359 9.00618164 85.75193359 8.67618164 84.73193359 8.33618164 C83.3330034 8.22790045 81.92976999 8.17042151 80.52685547 8.14672852 C79.68167358 8.13001099 78.8364917 8.11329346 77.96569824 8.09606934 C77.05324341 8.0824939 76.14078857 8.06891846 75.20068359 8.05493164 C74.25439087 8.03652222 73.30809814 8.01811279 72.33312988 7.99914551 C69.29946125 7.94038588 66.26573397 7.88765907 63.23193359 7.83618164 C60.22670546 7.78446736 57.22154349 7.73126675 54.21643066 7.67321777 C52.34760291 7.63715281 50.47870255 7.60460263 48.60974121 7.57629395 C39.40780855 7.39955483 30.62723934 6.74846795 21.73193359 4.33618164 C17.45640192 3.4939134 13.41115938 3.20769602 9.05615234 3.20336914 C7.19700195 3.20143555 7.19700195 3.20143555 5.30029297 3.19946289 C4.01960938 3.20333008 2.73892578 3.20719727 1.41943359 3.21118164 C0.11941406 3.20731445 -1.18060547 3.20344727 -2.52001953 3.19946289 C-3.75300781 3.20075195 -4.98599609 3.20204102 -6.25634766 3.20336914 C-7.38596924 3.20449707 -8.51559082 3.205625 -9.67944336 3.20678711 C-12.19802172 3.04249569 -12.19802172 3.04249569 -13.26806641 4.33618164 C-14.95523673 4.38955434 -16.64286499 4.4286812 -18.33056641 4.46118164 C-24.91474834 5.01483213 -27.92854172 7.5746313 -32.26806641 12.33618164 C-32.90873047 12.99489258 -33.54939453 13.65360352 -34.20947266 14.33227539 C-38.04000905 18.4347079 -40.37747093 22.06241531 -42.26806641 27.33618164 C-42.85587891 28.79024414 -42.85587891 28.79024414 -43.45556641 30.27368164 C-43.85775391 31.29461914 -43.85775391 31.29461914 -44.26806641 32.33618164 C-45.57037375 29.32971212 -45.23292616 28.24262497 -44.05322266 25.10180664 C-43.48474609 23.94165039 -42.91626953 22.78149414 -42.33056641 21.58618164 C-41.76466797 20.41571289 -41.19876953 19.24524414 -40.61572266 18.03930664 C-40.17099609 17.14727539 -39.72626953 16.25524414 -39.26806641 15.33618164 C-38.60806641 15.33618164 -37.94806641 15.33618164 -37.26806641 15.33618164 C-37.26806641 14.34618164 -37.26806641 13.35618164 -37.26806641 12.33618164 C-36.60806641 12.33618164 -35.94806641 12.33618164 -35.26806641 12.33618164 C-35.06181641 11.59368164 -34.85556641 10.85118164 -34.64306641 10.08618164 C-32.8487475 6.49754382 -30.85563515 4.91460964 -27.26806641 3.33618164 C-18.23366769 0.48864659 -9.38481123 -0.11279295 0 0 Z " fill="#A37F67" transform="translate(106.26806640625,101.663818359375)"/>
<path d="M0 0 C0.66 0 1.32 0 2 0 C1.979375 0.721875 1.95875 1.44375 1.9375 2.1875 C1.89835493 4.91105615 1.89835493 4.91105615 2.515625 7.140625 C4.16614808 16.88403542 2.68705068 27.79922586 -0.83203125 36.93359375 C-1.98195155 39.95261527 -2.90722085 42.97485175 -3.8137207 46.07250977 C-6.42852481 54.93828198 -9.58377038 63.14127178 -16 70 C-16.66 70 -17.32 70 -18 70 C-18.226875 70.53625 -18.45375 71.0725 -18.6875 71.625 C-20.41622751 74.75317359 -22.6665442 77.31744451 -25 80 C-25.56332031 80.66773438 -26.12664062 81.33546875 -26.70703125 82.0234375 C-30.79484018 86.81481267 -34.84770806 90.57948732 -40.125 94.0625 C-42.87975153 95.77176527 -42.87975153 95.77176527 -44.40234375 97.4609375 C-46.26622204 99.25645839 -48.16073209 100.3377294 -50.4375 101.5625 C-51.19933594 101.97628906 -51.96117187 102.39007813 -52.74609375 102.81640625 C-54.81828047 103.90457363 -56.90186883 104.96288277 -59 106 C-56.32649474 102.45791353 -53.60528783 99.68259025 -50.125 96.9375 C-45.53931636 93.25907813 -41.02722422 89.51197972 -36.5625 85.6875 C-35.97162598 85.18404053 -35.38075195 84.68058105 -34.77197266 84.16186523 C-28.7695402 79.40141132 -28.7695402 79.40141132 -25 73 C-23.66666667 71.66666667 -22.33333333 70.33333333 -21 69 C-20.01 67.515 -20.01 67.515 -19 66 C-17.18677617 63.28016426 -15.2945695 61.2945695 -13 59 C-11.33912085 56.13959703 -10.19772449 53.07986296 -9 50 C-8.34 50 -7.68 50 -7 50 C-7.020625 49.071875 -7.04125 48.14375 -7.0625 47.1875 C-7 44 -7 44 -6 41 C-6.87483915 38.83284443 -6.87483915 38.83284443 -8 37 C-7.01 36.67 -6.02 36.34 -5 36 C-5.0825 35.05125 -5.165 34.1025 -5.25 33.125 C-5.27760257 29.69538076 -4.39778356 27.30298236 -3 24.1875 C-0.78243103 19.07063591 -0.35167787 14.52668041 -1 9 C-1.495 8.01 -1.495 8.01 -2 7 C-1.39239518 4.6505947 -0.72870472 2.31470912 0 0 Z " fill="#B99280" transform="translate(222,205)"/>
<path d="M0 0 C0.90814453 -0.02900391 1.81628906 -0.05800781 2.75195312 -0.08789062 C9.21366329 -0.14802107 14.22216699 0.99288115 19.8125 4.3125 C20.4725 4.9725 21.1325 5.6325 21.8125 6.3125 C21.5625 8.875 21.5625 8.875 20.8125 11.3125 C15.92577576 13.75586212 10.52222905 12.33415349 5.5625 10.8125 C-3.86024964 8.07181105 -12.16449917 8.66414661 -21.1875 12.3125 C-23.1875 12.97916667 -25.1875 13.64583333 -27.1875 14.3125 C-26.71027765 10.01749883 -24.35436508 8.06629572 -21.1875 5.3125 C-14.101414 0.55673759 -8.30228322 0.08654222 0 0 Z " fill="#4F4740" transform="translate(98.1875,143.6875)"/>
<path d="M0 0 C1.08990234 -0.02835938 2.17980469 -0.05671875 3.30273438 -0.0859375 C12.29236933 -0.10756019 17.89518732 2.19181235 24.625 8.0625 C27.38853347 11.3284941 28.6875 13.19538075 28.6875 17.5 C25.15102101 16.4283397 22.95657155 14.92638903 20.3125 12.4375 C16.84052038 9.36210426 14.40507692 8.66267507 9.6875 8.5 C8.61822266 8.44392578 8.61822266 8.44392578 7.52734375 8.38671875 C3.73310763 8.2630644 0.40751552 8.46026273 -3.25 9.5 C-7.84670369 10.79484611 -12.56898318 11.09955231 -17.3125 10.5 C-17.9725 9.84 -18.6325 9.18 -19.3125 8.5 C-19.3125 6.0625 -19.3125 6.0625 -18.3125 3.5 C-12.70428654 -0.48402899 -6.59864992 -0.01544447 0 0 Z " fill="#4B433C" transform="translate(187.3125,148.5)"/>
<path d="M0 0 C19.305 0.495 19.305 0.495 39 1 C38.67 2.98 38.34 4.96 38 7 C27.26621937 11.36628365 17.40555967 11.17798506 6.546875 7.15625 C3.61650176 5.8258965 1.27935165 4.27935165 -1 2 C-0.67 1.34 -0.34 0.68 0 0 Z " fill="#854740" transform="translate(116,279)"/>
<path d="M0 0 C4.06597681 -0.48404486 5.79892813 -0.1191537 9.375 2 C12 5 12 5 12.6875 8.9375 C12.2911146 13.68511601 10.60169077 15.93473126 7 19 C2.94947758 19.65097682 0.77046399 19.36064272 -2.9375 17.625 C-3.618125 17.08875 -4.29875 16.5525 -5 16 C-5 15.34 -5 14.68 -5 14 C-5.66 14 -6.32 14 -7 14 C-7 11.36 -7 8.72 -7 6 C-5.02 6 -3.04 6 -1 6 C-0.4465236 3.92446352 0 2.15634036 0 0 Z " fill="#050301" transform="translate(94,184)"/>
<path d="M0 0 C3.88817732 -0.30495508 6.4026107 -0.29233945 9.9375 1.4375 C12.55516573 4.68975136 12.68172172 6.71730094 12.3984375 10.8046875 C11.74193275 14.42189996 11.01310652 15.82776042 8 18 C4.18435801 18.75270631 0.80863235 18.81489706 -3 18 C-6.21047959 14.86418273 -6.92050854 13.07313472 -7.25 8.625 C-7.12625 7.325625 -7.12625 7.325625 -7 6 C-4.53721199 4.768606 -2.7204945 4.92840804 0 5 C0 3.35 0 1.7 0 0 Z " fill="#040301" transform="translate(181,191)"/>
<path d="M0 0 C1.90234375 0.92578125 1.90234375 0.92578125 4 3 C4.89197764 6.01013442 5.20864249 9.07402889 5.5625 12.1875 C6.33878552 18.60312422 7.61775307 23.98674768 10 30 C10.54475381 32.69466009 10.7547378 35.25306333 11 38 C9.515 38.495 9.515 38.495 8 39 C7.505 37.515 7.505 37.515 7 36 C6.360625 35.731875 5.72125 35.46375 5.0625 35.1875 C3 34 3 34 1.75 30.875 C1.5025 29.92625 1.255 28.9775 1 28 C0.34 28 -0.32 28 -1 28 C-1.33745354 25.60468244 -1.6700829 23.20885732 -2 20.8125 C-2.09539063 20.13896484 -2.19078125 19.46542969 -2.2890625 18.77148438 C-3.264633 11.62891461 -3.43200647 6.40641208 0 0 Z " fill="#E0C4B2" transform="translate(33,194)"/>
<path d="M0 0 C0.66 0.66 1.32 1.32 2 2 C1.625 4.625 1.625 4.625 1 7 C1.66 7.33 2.32 7.66 3 8 C3 10 3 10 1.9375 12.875 C0.76428718 16.78570941 1.23329848 18.46659697 3 22 C3.13948833 25.06874316 3.02680261 27.84588501 2.5 30.875 C1.89592753 34.65045293 1.93412034 38.17897958 2 42 C2.66 42 3.32 42 4 42 C3.67 45.63 3.34 49.26 3 53 C2.34 52.67 1.68 52.34 1 52 C0.67 52.66 0.34 53.32 0 54 C-0.66 54 -1.32 54 -2 54 C-2.69821417 51.89936424 -3.38324472 49.79434263 -4.0625 47.6875 C-4.44535156 46.51574219 -4.82820313 45.34398437 -5.22265625 44.13671875 C-6 41 -6 41 -5 38 C-4.67 38.66 -4.34 39.32 -4 40 C-4.03480469 38.90945312 -4.06960937 37.81890625 -4.10546875 36.6953125 C-4.37654673 24.13583412 -3.12159618 12.1935773 0 0 Z M1 47 C2 51 2 51 2 51 Z " fill="#AC7A6D" transform="translate(55,202)"/>
<path d="M0 0 C1.5530592 6.55939123 0.17440003 11.72050037 -1.625 18.125 C-1.87378906 19.10082031 -2.12257812 20.07664063 -2.37890625 21.08203125 C-3.90643567 26.65257387 -5.27352368 30.33864511 -10 34 C-13.3125 35.8125 -13.3125 35.8125 -16 37 C-16 32.84382647 -15.37126502 31.31015403 -13.5625 27.6875 C-11.49361982 23.32765645 -10.31987123 19.79806841 -10 15 C-9.34 15 -8.68 15 -8 15 C-8.020625 13.7625 -8.04125 12.525 -8.0625 11.25 C-8.01923276 5.11686803 -8.01923276 5.11686803 -7 3 C-2.82142857 0 -2.82142857 0 0 0 Z " fill="#DCC0AE" transform="translate(247,210)"/>
<path d="M0 0 C0 0.66 0 1.32 0 2 C0.66 2 1.32 2 2 2 C2.28875 2.78375 2.5775 3.5675 2.875 4.375 C3.84912254 7.09671632 3.84912254 7.09671632 6 9 C3.69 9 1.38 9 -1 9 C1.72001922 15.19238418 4.52333166 21.17006908 8.08203125 26.9296875 C9.18354345 29.41394905 9.1639419 31.31135286 9 34 C5 34 5 34 3 33 C0.4367428 25.87124318 -1.39576704 18.55291201 -2 11 C-2.598125 10.855625 -3.19625 10.71125 -3.8125 10.5625 C-5.56150404 10.1127561 -7.28677023 9.57107659 -9 9 C-9.1875 5.625 -9.1875 5.625 -9 2 C-5.5647952 -0.29013653 -4.014669 -0.17842973 0 0 Z " fill="#C1A18D" transform="translate(96,246)"/>
<path d="M0 0 C1.77697266 -0.02513672 1.77697266 -0.02513672 3.58984375 -0.05078125 C9.6191484 0.57995591 13.33564189 3.18597682 17.4375 7.5 C18.12585938 8.21542969 18.81421875 8.93085938 19.5234375 9.66796875 C20.03132813 10.21066406 20.53921875 10.75335938 21.0625 11.3125 C20.7325 12.3025 20.4025 13.2925 20.0625 14.3125 C19.47082031 13.75820312 18.87914062 13.20390625 18.26953125 12.6328125 C17.47933594 11.90835938 16.68914062 11.18390625 15.875 10.4375 C14.70904297 9.35855469 14.70904297 9.35855469 13.51953125 8.2578125 C7.53959048 3.5232966 1.40365346 3.70547956 -5.9375 4.3125 C-9.12469755 4.94401902 -11.02755796 5.72026756 -13.9375 7.3125 C-15.12103825 11.04722071 -15.0427703 14.73290239 -15 18.625 C-14.98646484 20.22794922 -14.98646484 20.22794922 -14.97265625 21.86328125 C-14.96105469 22.67152344 -14.94945312 23.47976562 -14.9375 24.3125 C-16.97969706 22.62070672 -17.85543306 21.67522334 -18.44921875 19.05078125 C-18.50722656 18.25027344 -18.56523437 17.44976562 -18.625 16.625 C-18.72361328 15.41263672 -18.72361328 15.41263672 -18.82421875 14.17578125 C-18.86160156 13.56089844 -18.89898437 12.94601563 -18.9375 12.3125 C-20.0821875 13.4571875 -20.0821875 13.4571875 -21.25 14.625 C-23.14583333 16.52083333 -25.04166667 18.41666667 -26.9375 20.3125 C-26.53705446 13.90537142 -21.51839906 8.48702898 -16.9375 4.3125 C-14.5625 3.25 -14.5625 3.25 -11.9375 2.3125 C-10.83341797 1.79816406 -10.83341797 1.79816406 -9.70703125 1.2734375 C-6.35367498 0.10993166 -3.54561383 0.01154923 0 0 Z " fill="#050403" transform="translate(187.9375,184.6875)"/>
<path d="M0 0 C6.35092149 0.39498366 12.60713862 0.87864696 18.875 2 C26.30923129 3.25584425 33.78107417 3.3740287 41.30615234 3.48242188 C42.27117676 3.50755859 43.23620117 3.53269531 44.23046875 3.55859375 C45.10082764 3.57204834 45.97118652 3.58550293 46.86791992 3.59936523 C47.57150635 3.73157471 48.27509277 3.86378418 49 4 C49.66 4.99 50.32 5.98 51 7 C48.20090139 9.79909861 39.76445601 8.2491496 36.00073242 8.25537109 C24.41177892 8.15472367 10.69758552 8.01108894 0 3 C0 2.01 0 1.02 0 0 Z " fill="#94938F" transform="translate(108,260)"/>
<path d="M0 0 C0.66 0.66 1.32 1.32 2 2 C1.79503906 2.56847656 1.59007813 3.13695312 1.37890625 3.72265625 C-0.29025897 8.50653168 -1.30907065 12.96608614 -2 18 C-2.31710938 18.598125 -2.63421875 19.19625 -2.9609375 19.8125 C-4.27512337 22.57920709 -4.62387708 25.16137047 -5.0625 28.1875 C-5.898017 33.898017 -5.898017 33.898017 -7 35 C-7.19313431 37.14583178 -7.32424166 39.29729495 -7.4296875 41.44921875 C-7.50340515 42.78583502 -7.57764087 44.1224228 -7.65234375 45.45898438 C-7.76536094 47.56741541 -7.87444735 49.67580596 -7.97412109 51.78491211 C-8.07239572 53.81967636 -8.18739963 55.8529733 -8.3046875 57.88671875 C-8.36640137 59.10576904 -8.42811523 60.32481934 -8.49169922 61.58081055 C-9.18289934 66.23030992 -10.66629781 69.66629781 -14 73 C-14.24287489 75.44012949 -14.24287489 75.44012949 -14.125 78.125 C-14.09792969 79.49011719 -14.09792969 79.49011719 -14.0703125 80.8828125 C-14.04710937 81.58148438 -14.02390625 82.28015625 -14 83 C-14.99 83.495 -14.99 83.495 -16 84 C-16.03738281 83.12859375 -16.07476562 82.2571875 -16.11328125 81.359375 C-16.39715721 67.12536797 -16.39715721 67.12536797 -22.5625 54.875 C-23.366875 54.25625 -24.17125 53.6375 -25 53 C-25.66 52.34 -26.32 51.68 -27 51 C-27 50.01 -27 49.02 -27 48 C-24.43569434 48.37100593 -23.28752197 48.66005689 -21.5859375 50.671875 C-21.18632813 51.35765625 -20.78671875 52.0434375 -20.375 52.75 C-19.95605469 53.46671875 -19.53710938 54.1834375 -19.10546875 54.921875 C-17.88052182 57.22460208 -16.84816881 59.53259983 -16 62 C-15.67 60.35 -15.34 58.7 -15 57 C-14.67 57 -14.34 57 -14 57 C-14 60.63 -14 64.26 -14 68 C-13.01 67.505 -13.01 67.505 -12 67 C-10.53069314 60.95951623 -9.99634329 54.67133154 -9.86328125 48.46484375 C-9.49567677 31.61026458 -5.52516851 15.88671107 0 0 Z " fill="#997A67" transform="translate(60,138)"/>
<path d="M0 0 C18.16549633 -0.70619453 36.09180699 -1.20567355 50.62890625 11.4140625 C63.66500744 24.67886722 62.23326434 47.74844767 63 65 C62.67 65 62.34 65 62 65 C61.89977539 64.12899658 61.79955078 63.25799316 61.69628906 62.3605957 C61.31079606 59.06227039 60.91427568 55.76563101 60.51074219 52.46948242 C60.33978941 51.05528041 60.17297453 49.6405707 60.01074219 48.2253418 C58.00060274 29.42500713 58.00060274 29.42500713 48 14 C47.236875 13.0925 46.47375 12.185 45.6875 11.25 C42.08382023 8.23296577 38.4820786 7.21887852 34 6 C32.783125 5.649375 31.56625 5.29875 30.3125 4.9375 C28.6728125 4.4734375 28.6728125 4.4734375 27 4 C26.16597656 3.66355469 25.33195312 3.32710938 24.47265625 2.98046875 C19.69809172 1.6324196 15.06444474 1.53563235 10.125 1.375 C9.15046875 1.33632812 8.1759375 1.29765625 7.171875 1.2578125 C4.7814328 1.16406967 2.39098756 1.0783617 0 1 C0 0.67 0 0.34 0 0 Z " fill="#89664E" transform="translate(167,107)"/>
<path d="M0 0 C0.33 0.66 0.66 1.32 1 2 C1.99 2.33 2.98 2.66 4 3 C10.20529646 9.35664516 11.06217309 15.64226376 11.71484375 24.28125 C11.97548393 26.76625775 12.41959458 29.02772864 13.0625 31.4375 C14 35 14 35 14 39 C14.66 39 15.32 39 16 39 C16.33 41.97 16.66 44.94 17 48 C9.74146341 48.60487805 9.74146341 48.60487805 6.625 46.0625 C4.54896272 42.14996821 3.71943222 38.34499197 3 34 C3.391875 34.53625 3.78375 35.0725 4.1875 35.625 C4.785625 36.40875 5.38375 37.1925 6 38 C6.39832031 38.52851563 6.79664063 39.05703125 7.20703125 39.6015625 C8.40185799 41.12487635 9.69770546 42.56747601 11 44 C11.99 44 12.98 44 14 44 C13.67386719 43.06542969 13.34773438 42.13085938 13.01171875 41.16796875 C10.11058886 32.54461024 8.15420371 24.16814143 7.0769043 15.12182617 C6.80961973 13.067197 6.41438748 11.03008007 6 9 C5.01 8.34 4.02 7.68 3 7 C2.855625 7.5775 2.71125 8.155 2.5625 8.75 C2.04166667 10.83333333 1.52083333 12.91666667 1 15 C0 14 0 14 -0.09765625 10.83984375 C-0.08025391 8.90818359 -0.08025391 8.90818359 -0.0625 6.9375 C-0.05347656 5.64714844 -0.04445313 4.35679687 -0.03515625 3.02734375 C-0.02355469 2.02832031 -0.01195313 1.02929688 0 0 Z " fill="#CDB09C" transform="translate(30,188)"/>
<path d="M0 0 C0.66 0 1.32 0 2 0 C2.9765625 1.79036458 3.953125 3.58072917 4.9296875 5.37109375 C5.91410024 7.16618315 5.91410024 7.16618315 8 8 C10.26910971 8.09778166 12.54128942 8.12975646 14.8125 8.125 C16.03582031 8.12757813 17.25914062 8.13015625 18.51953125 8.1328125 C21.51712188 8.01842633 24.13409297 7.8745231 27 7 C28.23290201 4.54295238 28.23290201 4.54295238 29 2 C29.66 1.67 30.32 1.34 31 1 C31.48928347 5.10998119 31.1788048 6.72653384 28.875 10.25 C24.73173304 14.21312492 21.76072998 14.85800565 16.125 15.3125 C11.71835944 15.16898872 7.81577308 14.25400755 4 12 C1.11208052 8.75109058 0.07156942 6.96618721 -0.25 2.625 C-0.12625 1.325625 -0.12625 1.325625 0 0 Z " fill="#9B765D" transform="translate(122,235)"/>
<path d="M0 0 C5.52929254 3.77214258 10.17247267 8.38060968 12 15 C11.505 16.485 11.505 16.485 11 18 C10.5875 17.34773438 10.175 16.69546875 9.75 16.0234375 C4.97912462 8.80322877 0.25812898 2.88797312 -8.375 0.5625 C-15.57148217 -0.61218351 -21.63284468 -0.22042011 -27.875 3.75 C-31.13984495 6.14229346 -33.71490403 8.62203205 -36 12 C-35.75405067 6.95803875 -34.13833114 4.13424331 -30.7890625 0.546875 C-22.14740961 -6.92494715 -9.32151242 -5.24045225 0 0 Z " fill="#060404" transform="translate(106,181)"/>
<path d="M0 0 C1.2375 -0.020625 2.475 -0.04125 3.75 -0.0625 C4.44609375 -0.07410156 5.1421875 -0.08570313 5.859375 -0.09765625 C8 0 8 0 9.82421875 0.46484375 C21.70838734 3.38787983 34.93953979 1.85209773 47 1 C48 4 48 4 47.3125 6.625 C46 9 46 9 43.875 9.8125 C43.25625 9.874375 42.6375 9.93625 42 10 C42.33 8.35 42.66 6.7 43 5 C42.24493164 5.00523682 41.48986328 5.01047363 40.71191406 5.01586914 C37.22461816 5.03691225 33.73733569 5.0497459 30.25 5.0625 C28.46916016 5.07506836 28.46916016 5.07506836 26.65234375 5.08789062 C19.04697478 5.10867032 11.56658475 4.77144376 4 4 C4 4.66 4 5.32 4 6 C1.525 5.01 1.525 5.01 -1 4 C-0.67 2.68 -0.34 1.36 0 0 Z " fill="#582D26" transform="translate(112,275)"/>
<path d="M0 0 C1.29559091 3.65121073 0.9810668 6.32099949 0 10 C-1.98 10.33 -3.96 10.66 -6 11 C-6.495 10.01 -6.495 10.01 -7 9 C-21.19 8.67 -35.38 8.34 -50 8 C-50 7.67 -50 7.34 -50 7 C-48.96069336 6.99589111 -47.92138672 6.99178223 -46.85058594 6.98754883 C-42.98859295 6.96575026 -39.12761779 6.91145473 -35.26611328 6.84741211 C-33.59596524 6.82423812 -31.92567119 6.80983775 -30.25537109 6.80444336 C-27.85161421 6.79514864 -25.45015159 6.7541534 -23.046875 6.70703125 C-21.9294693 6.71293022 -21.9294693 6.71293022 -20.78948975 6.71894836 C-16.90768941 6.61008493 -15.35791385 6.37424452 -12.62426758 3.51586914 C-12.08825928 2.68563232 -11.55225098 1.85539551 -11 1 C-7.30935971 -0.74260559 -3.92531495 -1.30843832 0 0 Z " fill="#CCAB99" transform="translate(185,252)"/>
<path d="M0 0 C-0.61875 0.556875 -1.2375 1.11375 -1.875 1.6875 C-6.69275777 6.93035405 -6.23655355 12.23194015 -6 19 C-9.95122922 18.72433285 -11.78042562 18.17285643 -14.9375 15.6875 C-17 13 -17 13 -17.0625 11 C-13.58924947 4.46211665 -7.90282538 -0.95791823 0 0 Z " fill="#E1E0DF" transform="translate(88,181)"/>
<path d="M0 0 C3.41737377 0.28371683 6.83371275 0.57850875 10.25 0.875 C11.673125 0.99294922 11.673125 0.99294922 13.125 1.11328125 C17.93295582 1.53560169 22.60835989 2.09490712 27.34375 3.03125 C36.87072572 4.69141775 46.60704906 4.47296793 56.25 4.625 C58.26694252 4.66325739 60.28387005 4.70231338 62.30078125 4.7421875 C67.20039664 4.83733415 72.10008813 4.92166764 77 5 C77 5.33 77 5.66 77 6 C50.37454349 6.99663232 25.98240343 7.7923542 0 1 C0 0.67 0 0.34 0 0 Z " fill="#A1705F" transform="translate(101,255)"/>
<path d="M0 0 C2.5358929 1.44908166 3.44145585 3.4483389 4.75 6 C3.6053125 6.6496875 3.6053125 6.6496875 2.4375 7.3125 C-1.45954107 9.75947928 -3.46518073 12.03882843 -5.4375 16.1875 C-5.78167969 16.90292969 -6.12585938 17.61835938 -6.48046875 18.35546875 C-6.73441406 18.89816406 -6.98835937 19.44085938 -7.25 20 C-7.91 20 -8.57 20 -9.25 20 C-9.25 14.39 -9.25 8.78 -9.25 3 C-2.25 0 -2.25 0 0 0 Z " fill="#CDB09D" transform="translate(243.25,193)"/>
<path d="M0 0 C0.66 0.99 1.32 1.98 2 3 C0.69102427 8.35490072 -1.07410992 13.65635575 -5.6875 16.875 C-6.450625 17.24625 -7.21375 17.6175 -8 18 C-7.38253906 18.10957031 -6.76507813 18.21914062 -6.12890625 18.33203125 C-0.22287499 19.4377266 5.35197559 20.95361435 11 23 C11 23.66 11 24.32 11 25 C8.2289233 24.49995608 5.58943651 23.87621201 2.890625 23.0625 C-9.61188693 19.41369824 -22.03721075 19.17986645 -35 19 C-35 18.67 -35 18.34 -35 18 C-34.07058594 17.93941406 -33.14117187 17.87882812 -32.18359375 17.81640625 C-24.53787248 17.34877642 -24.53787248 17.34877642 -16.9375 16.4375 C-14.23800491 16.03544754 -11.72341824 15.91747217 -9 16 C-8.67 15.01 -8.34 14.02 -8 13 C-6.824375 11.9171875 -6.824375 11.9171875 -5.625 10.8125 C-2.37188435 7.32701894 -1.45053331 4.50428764 0 0 Z " fill="#15120F" transform="translate(197,87)"/>
<path d="M0 0 C5.15791187 0.90408343 8.65628978 4.105381 12 8 C12.92881449 10.54072534 13 12.25310134 13 15 C10.25 17.0625 10.25 17.0625 7 19 C4.796875 18.62109375 4.796875 18.62109375 3 18 C2.86722656 16.86820313 2.73445312 15.73640625 2.59765625 14.5703125 C2.4194658 13.08851821 2.24106971 11.60674864 2.0625 10.125 C1.97548828 9.37863281 1.88847656 8.63226563 1.79882812 7.86328125 C1.36673937 3.8046769 1.36673937 3.8046769 0 0 Z " fill="#E2E0E0" transform="translate(196,190)"/>
<path d="M0 0 C3.11233752 0.97260548 4.71740896 1.6305743 7 3.9375 C7.42578125 7.00390625 7.42578125 7.00390625 7.3125 10.5 C7.28800781 11.65628906 7.26351562 12.81257812 7.23828125 14.00390625 C7 16.9375 7 16.9375 6 18.9375 C5.34 18.9375 4.68 18.9375 4 18.9375 C3.67386719 18.25042969 3.34773438 17.56335938 3.01171875 16.85546875 C2.35623047 15.50388672 2.35623047 15.50388672 1.6875 14.125 C1.25824219 13.23167969 0.82898437 12.33835938 0.38671875 11.41796875 C-1.60846231 7.84912376 -3.60299762 6.20216825 -7 3.9375 C-3.83478261 -0.0798913 -3.83478261 -0.0798913 0 0 Z " fill="#DFC3B0" transform="translate(39,178.0625)"/>
<path d="M0 0 C0 0.99 0 1.98 0 3 C0.556875 2.649375 1.11375 2.29875 1.6875 1.9375 C4.53886783 0.78154007 6.08517222 1.19032562 9 2 C9.625 3.875 9.625 3.875 10 6 C9.34 6.66 8.68 7.32 8 8 C4.875 7.625 4.875 7.625 2 7 C2 9.64 2 12.28 2 15 C2.66 15 3.32 15 4 15 C4.66 16.32 5.32 17.64 6 19 C4.68428397 18.7452486 3.37239624 18.47065859 2.0625 18.1875 C1.33160156 18.03667969 0.60070312 17.88585937 -0.15234375 17.73046875 C-0.76207031 17.48941406 -1.37179688 17.24835938 -2 17 C-3.7146471 11.85605871 -3.90374625 6.84514859 -1.5 1.9375 C-1.005 1.298125 -0.51 0.65875 0 0 Z " fill="#553F20" transform="translate(85,183)"/>
<path d="M0 0 C6.93 0 13.86 0 21 0 C21.33 1.65 21.66 3.3 22 5 C20.17168343 6.82831657 17.39629312 6.21612455 14.9375 6.25 C9.20967261 6.22476728 5.15602576 5.42636506 0 3 C0 2.01 0 1.02 0 0 Z " fill="#A45D57" transform="translate(124,283)"/>
<path d="M0 0 C0.66 0.66 1.32 1.32 2 2 C1.625 4.625 1.625 4.625 1 7 C1.66 7.33 2.32 7.66 3 8 C3 10 3 10 1.9375 12.875 C0.76428718 16.78570941 1.23329848 18.46659697 3 22 C3.18865866 26.15049063 2.69467835 29.91876469 2 34 C1.96377667 35.66627298 1.95100158 37.33405374 2 39 C1.33333333 37.66666667 0.66666667 36.33333333 0 35 C-0.34772461 34.39438232 -0.69544922 33.78876465 -1.05371094 33.16479492 C-2.15176252 30.65281779 -2.25831166 28.84768822 -2.265625 26.11328125 C-2.26820312 25.17419922 -2.27078125 24.23511719 -2.2734375 23.26757812 C-2.26570313 22.29240234 -2.25796875 21.31722656 -2.25 20.3125 C-2.25773437 19.35666016 -2.26546875 18.40082031 -2.2734375 17.41601562 C-2.25679312 11.31168805 -1.53366097 5.90946351 0 0 Z " fill="#C29788" transform="translate(55,202)"/>
<path d="M0 0 C2.31 0 4.62 0 7 0 C7.38218767 1.65614657 7.71395102 3.32457024 8 5 C7 6 7 6 3.9375 6.0625 C2.968125 6.041875 1.99875 6.02125 1 6 C0.77528625 9.22089712 0.9127625 11.71959374 1.875 14.8125 C5.25093231 18.28772444 9.33364358 17.90369621 14 18 C14 18.33 14 18.66 14 19 C8.72 19.33 3.44 19.66 -2 20 C-2 19.01 -2 18.02 -2 17 C-2.02320313 16.17886719 -2.04640625 15.35773438 -2.0703125 14.51171875 C-2.17210438 9.25489523 -2.12706942 4.91884803 0 0 Z " fill="#5D421A" transform="translate(174,191)"/>
<path d="M0 0 C2.1875 0.3125 2.1875 0.3125 4 1 C3.67 1.9075 3.34 2.815 3 3.75 C1.44478146 9.06183796 1.83803567 14.52020695 2 20 C-0.04219706 18.30820672 -0.91793306 17.36272334 -1.51171875 14.73828125 C-1.56972656 13.93777344 -1.62773437 13.13726562 -1.6875 12.3125 C-1.78611328 11.10013672 -1.78611328 11.10013672 -1.88671875 9.86328125 C-1.92410156 9.24839844 -1.96148437 8.63351563 -2 8 C-3.1446875 9.1446875 -3.1446875 9.1446875 -4.3125 10.3125 C-6.20833333 12.20833333 -8.10416667 14.10416667 -10 16 C-9.6199145 9.91863194 -5.3076602 5.60840789 -1.44140625 1.23828125 C-0.96574219 0.82964844 -0.49007812 0.42101562 0 0 Z " fill="#1D1815" transform="translate(171,189)"/>
<path d="M0 0 C3.72155995 3.20824133 5.37911471 6.38047692 7 11 C7 12.65 7 14.3 7 16 C3.04 15.67 -0.92 15.34 -5 15 C-3 10 -3 10 -1 8 C-0.54188325 6.02764667 -0.54188325 6.02764667 -0.375 3.875 C-0.189375 1.956875 -0.189375 1.956875 0 0 Z " fill="#E2DFDD" transform="translate(112,192)"/>
<path d="M0 0 C0.66 0 1.32 0 2 0 C2.99 4.62 3.98 9.24 5 14 C-0.13942384 15.28485596 -1.37835584 14.22194431 -6 12 C-5.55946315 7.15409462 -3.25494123 3.51858133 0 0 Z " fill="#E0DFDE" transform="translate(167,197)"/>
<path d="M0 0 C1 3 1 3 0.5625 6.8125 C0.4120944 8.93841402 0.4120944 8.93841402 1 11 C3.38091259 13.48556809 6.04367624 15.25788064 9 17 C7.16796875 17.63671875 7.16796875 17.63671875 5 18 C1.77272377 15.37314725 -0.52753358 13.25219775 -1 9 C-1.66 9 -2.32 9 -3 9 C-1.91343356 13.93133998 -0.8990762 17.78316189 2 22 C-3.875 20.125 -3.875 20.125 -5 19 C-5.15272417 16.92060164 -5.22195322 14.83481069 -5.25 12.75 C-5.27578125 11.61046875 -5.3015625 10.4709375 -5.328125 9.296875 C-4.97024176 5.70100057 -4.15489777 3.86622324 -2 1 C-1.34 0.67 -0.68 0.34 0 0 Z " fill="#C6A793" transform="translate(125,226)"/>
<path d="M0 0 C7.08452781 3.84588653 10.63841598 8.08400901 13.15625 15.66796875 C16.29768297 28.07372027 16.43431893 41.27217603 17 54 C16.67 54 16.34 54 16 54 C15.89977539 53.12899658 15.79955078 52.25799316 15.69628906 51.3605957 C15.31079606 48.06227039 14.91427568 44.76563101 14.51074219 41.46948242 C14.33978941 40.05528041 14.17297453 38.6405707 14.01074219 37.2253418 C11.99879365 18.42817555 11.99879365 18.42817555 2 3 C1.34 2.67 0.68 2.34 0 2 C0 1.34 0 0.68 0 0 Z " fill="#A5846E" transform="translate(213,118)"/>
<path d="M0 0 C0.66 0 1.32 0 2 0 C2.33 0.66 2.66 1.32 3 2 C3.66 1.67 4.32 1.34 5 1 C5.602537 7.98942918 5.602537 7.98942918 3.88671875 10.8671875 C2.66254412 12.30861002 1.33721771 13.66278229 0 15 C-3.3 14.34 -6.6 13.68 -10 13 C-8.68 12.34 -7.36 11.68 -6 11 C-2.643619 7.48750825 -0.43437352 4.92289989 0 0 Z " fill="#7A6248" transform="translate(107,191)"/>
<path d="M0 0 C0 0.66 0 1.32 0 2 C-5.95577539 7.95577539 -16.27543485 8.99311625 -24.25 9.25 C-29.88467834 9.2190827 -34.73375368 7.91915267 -40 6 C-40 5.34 -40 4.68 -40 4 C-39.14341797 4.2165625 -39.14341797 4.2165625 -38.26953125 4.4375 C-22.8944242 7.95739732 -13.67222557 0 0 0 Z " fill="#BC8D81" transform="translate(162,282)"/>
<path d="M0 0 C2 2 2 2 2.9375 4 C3.96786859 6.32131409 3.96786859 6.32131409 7 8 C9.28459465 11.80765775 10.39281865 14.54805536 10 19 C6 19 6 19 4 18 C3.20527274 15.75794097 2.51226471 13.47929271 1.875 11.1875 C1.52179688 9.94355469 1.16859375 8.69960938 0.8046875 7.41796875 C0 4 0 4 0 0 Z " fill="#CEAA9B" transform="translate(95,261)"/>
<path d="M0 0 C0.66 0.33 1.32 0.66 2 1 C-1.09652196 4.27346607 -3.95019912 6.97509956 -8 9 C-8.99 9 -9.98 9 -11 9 C-11 9.66 -11 10.32 -11 11 C-17.88002171 13.62096065 -24.72176039 13.18170362 -32 13 C-31.34 12.34 -30.68 11.68 -30 11 C-28.948125 11.020625 -27.89625 11.04125 -26.8125 11.0625 C-23.2366173 11.00387897 -21.13776919 10.44573724 -17.953125 8.91796875 C-15.65656118 7.83858375 -13.3103365 6.96119406 -10.9375 6.0625 C-6.86920628 4.45381592 -3.51591859 2.59067685 0 0 Z " fill="#B08E78" transform="translate(172,305)"/>
<path d="M0 0 C0.33 0.99 0.66 1.98 1 3 C3.01508358 3.73323796 3.01508358 3.73323796 5 4 C5 5.32 5 6.64 5 8 C5.66 8 6.32 8 7 8 C7 8.66 7 9.32 7 10 C7.66 10 8.32 10 9 10 C9.433125 11.134375 9.86625 12.26875 10.3125 13.4375 C11.1478125 15.2009375 11.1478125 15.2009375 12 17 C12.99 17.33 13.98 17.66 15 18 C15 18.99 15 19.98 15 21 C15.33 20.34 15.66 19.68 16 19 C16.66 19 17.32 19 18 19 C18.12375 19.639375 18.2475 20.27875 18.375 20.9375 C18.58125 21.618125 18.7875 22.29875 19 23 C19.66 23.33 20.32 23.66 21 24 C20.67 24.66 20.34 25.32 20 26 C14.125 22.375 14.125 22.375 13 19 C11.11683841 17.89163577 11.11683841 17.89163577 9 17 C5.71349511 14.80899674 5.21891364 13.37592226 3.83203125 9.80859375 C2.96260775 7.7188048 2.96260775 7.7188048 0.75 5.25 C0.1725 4.5075 -0.405 3.765 -1 3 C-0.67 2.01 -0.34 1.02 0 0 Z " fill="#B2917B" transform="translate(74,275)"/>
<path d="M0 0 C1 3 1 3 0.3125 5.625 C-1 8 -1 8 -3.125 8.8125 C-3.74375 8.874375 -4.3625 8.93625 -5 9 C-4.67 7.35 -4.34 5.7 -4 4 C-15.385 3.505 -15.385 3.505 -27 3 C-27.33 2.34 -27.66 1.68 -28 1 C-24.64596947 0.83051801 -21.29175736 0.66492694 -17.9375 0.5 C-16.99455078 0.45230469 -16.05160156 0.40460938 -15.08007812 0.35546875 C-10.04601557 0.10990472 -5.03997893 -0.0559221 0 0 Z " fill="#49241E" transform="translate(159,276)"/>
<path d="M0 0 C1.29550781 0.05478516 2.59101563 0.10957031 3.92578125 0.16601562 C5.28908084 0.2392426 6.65236194 0.31281469 8.015625 0.38671875 C9.39446574 0.45001139 10.7733728 0.51187632 12.15234375 0.57226562 C15.52435462 0.72553885 18.89499721 0.89340059 22.265625 1.07421875 C22.265625 2.72421875 22.265625 4.37421875 22.265625 6.07421875 C20.615625 6.40421875 18.965625 6.73421875 17.265625 7.07421875 C16.935625 5.75421875 16.605625 4.43421875 16.265625 3.07421875 C9.335625 2.74421875 2.405625 2.41421875 -4.734375 2.07421875 C-4.734375 3.06421875 -4.734375 4.05421875 -4.734375 5.07421875 C-6.714375 4.41421875 -8.694375 3.75421875 -10.734375 3.07421875 C-7.22649167 -0.24764046 -4.72588714 -0.22800333 0 0 Z " fill="#8E4D46" transform="translate(128.734375,280.92578125)"/>
<path d="M0 0 C4.88810878 -0.2284163 9.18787666 0.61617259 13.875 1.875 C14.54402344 2.04902344 15.21304688 2.22304688 15.90234375 2.40234375 C17.24774392 2.75230333 18.59248169 3.10481998 19.93652344 3.45996094 C23.28375024 4.33597439 26.64204998 5.16614664 30 6 C26.11609533 7.126037 23.25003886 6.74250661 19.25 6.0625 C18.07953125 5.86785156 16.9090625 5.67320312 15.703125 5.47265625 C14.36507812 5.23869141 14.36507812 5.23869141 13 5 C13 5.99 13 6.98 13 8 C9.2241456 7.47557578 6.77627845 6.67345333 4 4 C4 3.01 4 2.02 4 1 C2.68 1.33 1.36 1.66 0 2 C0 1.34 0 0.68 0 0 Z " fill="#844C39" transform="translate(95,255)"/>
<path d="M0 0 C1.23184766 2.46369532 1.16732342 4.1894501 1.1875 6.9375 C1.20167969 7.81277344 1.21585938 8.68804687 1.23046875 9.58984375 C1 12 1 12 -1 15 C-1 13.68 -1 12.36 -1 11 C-1.78375 11.515625 -2.5675 12.03125 -3.375 12.5625 C-4.24125 13.036875 -5.1075 13.51125 -6 14 C-6.66 13.67 -7.32 13.34 -8 13 C-5.75421558 9.59260295 -3.48862878 6.23521742 -1 3 C-3.71224618 4.61268692 -6.37352812 6.24901874 -9 8 C-7.13554727 3.64961029 -5.02378599 0 0 0 Z " fill="#C2A592" transform="translate(248,199)"/>
<path d="M0 0 C0.33 0.66 0.66 1.32 1 2 C1.99 2.33 2.98 2.66 4 3 C9.61632059 8.75330402 11.09404001 13.88790342 11.125 21.9375 C11.09319918 23.62521475 11.05491533 25.31287918 11 27 C10.67 27 10.34 27 10 27 C9.81824219 25.97519531 9.63648438 24.95039063 9.44921875 23.89453125 C9.19583322 22.5337571 8.9418978 21.17308527 8.6875 19.8125 C8.56955078 19.13896484 8.45160156 18.46542969 8.33007812 17.77148438 C7.53997472 13.61837674 6.40983102 10.47636687 4 7 C1.65026182 8.89755144 1.65026182 8.89755144 1.875 12.125 C1.91625 13.07375 1.9575 14.0225 2 15 C1.34 14.67 0.68 14.34 0 14 C0 9.38 0 4.76 0 0 Z " fill="#CBAE9C" transform="translate(30,188)"/>
<path d="M0 0 C1.04285156 -0.01417969 2.08570313 -0.02835938 3.16015625 -0.04296875 C5.9375 0.1875 5.9375 0.1875 8.9375 2.1875 C9.125 5.3125 9.125 5.3125 8.9375 8.1875 C6.9575 6.8675 4.9775 5.5475 2.9375 4.1875 C2.9375 5.1775 2.9375 6.1675 2.9375 7.1875 C2.57011719 6.70667969 2.20273438 6.22585937 1.82421875 5.73046875 C-0.81090443 3.57545083 -2.88755636 3.68077654 -6.25 3.5 C-7.33667969 3.43425781 -8.42335937 3.36851562 -9.54296875 3.30078125 C-10.37441406 3.26339844 -11.20585937 3.22601563 -12.0625 3.1875 C-8.57891169 -0.29608831 -4.76338249 0.0295129 0 0 Z " fill="#543F27" transform="translate(188.0625,187.8125)"/>
<path d="M0 0 C-1.33814899 3.61300227 -3.50526096 5.2419758 -6.484375 7.5703125 C-8.16106958 9.15193677 -9.06045523 10.65134692 -10.125 12.6875 C-12 16 -12 16 -16 18 C-15.34 12.72 -14.68 7.44 -14 2 C-13.67 2 -13.34 2 -13 2 C-13 4.97 -13 7.94 -13 11 C-12.34 11 -11.68 11 -11 11 C-10.79375 10.29875 -10.5875 9.5975 -10.375 8.875 C-8.23266741 4.39557731 -5.22915866 0 0 0 Z " fill="#9E7860" transform="translate(247,202)"/>
<path d="M0 0 C1.32 0.33 2.64 0.66 4 1 C3.85820313 1.66386719 3.71640625 2.32773438 3.5703125 3.01171875 C3.1137781 5.75492986 2.85551105 8.22071258 3 11 C5.7658076 14.76457146 7.30332104 15.69320326 11.8515625 16.515625 C14.57520419 16.78306269 17.26448587 16.94645791 20 17 C20 16.34 20 15.68 20 15 C21.65 14.34 23.3 13.68 25 13 C24.1875 15.4375 24.1875 15.4375 23 18 C18.6133681 19.46221063 14.57478324 19.74222147 10 19 C6.5688768 17.13355839 3.75322636 14.75322636 1 12 C0.92788335 9.44436629 1.00366284 6.90339547 1.0625 4.34765625 C1.16512793 1.97754593 1.16512793 1.97754593 0 0 Z " fill="#D4B7A4" transform="translate(124,225)"/>
<path d="M0 0 C0.33 0 0.66 0 1 0 C1.33823023 8.1175255 0.74985688 15.09111727 -4 22 C-4.99 20.68 -5.98 19.36 -7 18 C-6.01 17.67 -5.02 17.34 -4 17 C-4.0825 16.05125 -4.165 15.1025 -4.25 14.125 C-4.29215976 8.99204922 -2.07385016 4.60135505 0 0 Z " fill="#C39588" transform="translate(221,224)"/>
<path d="M0 0 C0.66 0.33 1.32 0.66 2 1 C-1.5213216 6.04032308 -4.6910152 8.96798388 -10.67578125 10.64453125 C-14.33415732 11.20404759 -17.38154868 10.72369026 -21 10 C-17.9535416 8.38380376 -14.88852115 7.23112341 -11.625 6.125 C-7.21856941 4.55590959 -3.71988662 2.81504933 0 0 Z " fill="#B08D78" transform="translate(162,288)"/>
<path d="M0 0 C0.33 0 0.66 0 1 0 C1.35338623 2.96844435 1.5417682 5.15598218 -0.11328125 7.734375 C-1.35503168 9.20348819 -2.67337918 10.60704814 -4 12 C-4.66 11.67 -5.32 11.34 -6 11 C-5.67 10.34 -5.34 9.68 -5 9 C-5.99 9.495 -5.99 9.495 -7 10 C-8.87379605 10.07033769 -10.75001102 10.0843022 -12.625 10.0625 C-13.62789062 10.05347656 -14.63078125 10.04445312 -15.6640625 10.03515625 C-16.43492187 10.02355469 -17.20578125 10.01195312 -18 10 C-18 9.34 -18 8.68 -18 8 C-13.05 7.34 -8.1 6.68 -3 6 C-2.34 4.35 -1.68 2.7 -1 1 C-0.67 0.67 -0.34 0.34 0 0 Z " fill="#A47F68" transform="translate(152,236)"/>
<path d="M0 0 C0.66 0.33 1.32 0.66 2 1 C1.566875 2.2375 1.566875 2.2375 1.125 3.5 C-0.09898451 7.30795181 -1.0616882 11.11270827 -2 15 C-2.66 15 -3.32 15 -4 15 C-4.12375 15.763125 -4.2475 16.52625 -4.375 17.3125 C-5 20 -5 20 -7 23 C-7.66 23 -8.32 23 -9 23 C-8.71125 22.443125 -8.4225 21.88625 -8.125 21.3125 C-7.75375 20.549375 -7.3825 19.78625 -7 19 C-6.608125 18.21625 -6.21625 17.4325 -5.8125 16.625 C-4.73855097 13.97907614 -4.73855097 13.97907614 -5.75 11.1875 C-6.10099584 6.71230304 -4.10918675 4.89819072 -1.34765625 1.5390625 C-0.90292969 1.03117187 -0.45820313 0.52328125 0 0 Z " fill="#D1AC9E" transform="translate(177,268)"/>
<path d="M0 0 C2.0166244 6.13629997 -0.1111943 12.8520529 -2.5 18.625 C-4 21 -4 21 -6 22 C-5.60901934 16.05439752 -4.57162134 11.45183724 -2 6 C-1.31163487 4.00736409 -0.63718601 2.00958663 0 0 Z M-7 22 C-6.67 23.32 -6.34 24.64 -6 26 C-6.99 26.495 -6.99 26.495 -8 27 C-7.67 25.35 -7.34 23.7 -7 22 Z M-9 27 C-8.34 27.66 -7.68 28.32 -7 29 C-8.32 29.99 -9.64 30.98 -11 32 C-10.34 30.35 -9.68 28.7 -9 27 Z " fill="#AF7D70" transform="translate(223,234)"/>
<path d="M0 0 C2.99961746 1.42158741 5.67365332 3.10581072 8.4375 4.9375 C14.28455646 8.51215784 20.31211445 9.80498597 27 11 C27 11.66 27 12.32 27 13 C16.12267626 12.63742254 8.92397585 10.53744045 1 3 C0.67 2.01 0.34 1.02 0 0 Z " fill="#B5927D" transform="translate(110,286)"/>
<path d="M0 0 C0 0.99 0 1.98 0 3 C-1.98 3.99 -1.98 3.99 -4 5 C-4 5.99 -4 6.98 -4 8 C-6.5 10.1875 -6.5 10.1875 -9 12 C-9.28529057 8.62089173 -9.43881293 5.36964991 -9 2 C-6.00789345 -0.90899248 -3.89585991 -1.58720219 0 0 Z " fill="#E4CAB9" transform="translate(245,194)"/>
<path d="M0 0 C2.97 0.495 2.97 0.495 6 1 C8.10827055 4.16240582 8.33817465 5.50657469 8.625 9.1875 C8.69976562 10.08855469 8.77453125 10.98960937 8.8515625 11.91796875 C8.90054688 12.60503906 8.94953125 13.29210937 9 14 C8.01 14.495 8.01 14.495 7 15 C4.69 10.05 2.38 5.1 0 0 Z " fill="#F5DBCA" transform="translate(36,178)"/>
<path d="M0 0 C0.99 0.66 1.98 1.32 3 2 C2.75 5.375 2.75 5.375 2 9 C-0.0625 10.4375 -0.0625 10.4375 -2 11 C-2.33 10.01 -2.66 9.02 -3 8 C-4.98 8.66 -6.96 9.32 -9 10 C-8.06862408 8.70391053 -7.1296434 7.41328368 -6.1875 6.125 C-5.66542969 5.40570313 -5.14335937 4.68640625 -4.60546875 3.9453125 C-3 2 -3 2 0 0 Z " fill="#CBA697" transform="translate(170,277)"/>
<path d="M0 0 C0.66 0.33 1.32 0.66 2 1 C1.27554688 1.65484375 0.55109375 2.3096875 -0.1953125 2.984375 C-7.02340009 9.35804362 -11.18087717 15.37703278 -15 24 C-15.66 24.99 -16.32 25.98 -17 27 C-16.57664615 20.50857435 -14.08900201 15.66507011 -11 10 C-10.34 10 -9.68 10 -9 10 C-9 9.01 -9 8.02 -9 7 C-8.34 7 -7.68 7 -7 7 C-6.67 6.01 -6.34 5.02 -6 4 C-4.04402816 2.60287726 -2.04563599 1.26220093 0 0 Z " fill="#C1A28E" transform="translate(78,107)"/>
<path d="M0 0 C5.94 0 11.88 0 18 0 C18 1.33333333 18 2.66666667 18 4 C15.93867858 4.10864945 13.87568679 4.18588321 11.8125 4.25 C10.08966797 4.31960938 10.08966797 4.31960938 8.33203125 4.390625 C5 4 5 4 0 0 Z " fill="#AA675F" transform="translate(127,285)"/>
<path d="M0 0 C0.66 1.32 1.32 2.64 2 4 C1.01 5.485 1.01 5.485 0 7 C-0.38513665 9.53725615 -0.38513665 9.53725615 -0.5 12.3125 C-0.82045631 16.48395708 -1.18461277 20.16751585 -3 24 C-3.99 24.33 -4.98 24.66 -6 25 C-5.01883711 16.15662395 -3.45520762 8.21869774 0 0 Z " fill="#CCAC99" transform="translate(220,189)"/>
<path d="M0 0 C0 3.78857973 -0.89546445 4.35539468 -3.5 7 C-7.62450903 10.99240732 -12.01728798 14 -18 14 C-18 13.34 -18 12.68 -18 12 C-16.09375 10.703125 -16.09375 10.703125 -13.5 9.25 C-8.71624557 6.48332721 -4.33731899 3.41654736 0 0 Z " fill="#3A3734" transform="translate(179,14)"/>
<path d="M0 0 C5.48369275 1.27527738 7.77816556 3.43573455 11 8 C12.47066095 10.80762545 13.13256674 12.18250509 12.625 15.3125 C12.41875 15.869375 12.2125 16.42625 12 17 C11.34 17 10.68 17 10 17 C8.06158153 12.34779566 8.06158153 12.34779566 7.65625 10.05859375 C6.80848842 7.39924641 5.46781714 6.20336102 3.4375 4.3125 C2.27785215 3.22285101 1.12813455 2.12224351 0 1 C0 0.67 0 0.34 0 0 Z " fill="#9D897C" transform="translate(200,187)"/>
<path d="M0 0 C6.68993219 0.53951066 12.63460728 1.88706171 19 4 C17 6 17 6 15.1171875 6.08203125 C9.66202403 5.42627118 5.07223113 4.12111483 0 2 C0 1.34 0 0.68 0 0 Z " fill="#A3816A" transform="translate(107,315)"/>
<path d="M0 0 C1 3 1 3 0.109375 4.97265625 C-0.33921875 5.66230469 -0.7878125 6.35195312 -1.25 7.0625 C-1.68828125 7.75472656 -2.1265625 8.44695312 -2.578125 9.16015625 C-4 11 -4 11 -7 13 C-9.73990408 12.96856707 -12.28417854 12.44521663 -15 12 C-14.34 11.67 -13.68 11.34 -13 11 C-12.59270772 8.67843403 -12.25561323 6.3431213 -12 4 C-11.67 4 -11.34 4 -11 4 C-11 5.98 -11 7.96 -11 10 C-7.72167308 9.39007871 -5.59319603 8.75107508 -3.48828125 6.0859375 C-2.25592765 4.08733538 -1.09224643 2.07816798 0 0 Z " fill="#B89985" transform="translate(240,238)"/>
<path d="M0 0 C3.3 0.33 6.6 0.66 10 1 C10.33 1.99 10.66 2.98 11 4 C10.33613281 4.02578125 9.67226562 4.0515625 8.98828125 4.078125 C3.45558259 4.43351002 0.03433925 4.83118278 -4 9 C-3.35455571 5.51460083 -1.89865603 2.97180943 0 0 Z " fill="#4F391B" transform="translate(88,180)"/>
<path d="M0 0 C2.56336254 0.11446272 5.12513445 0.24119501 7.6875 0.375 C8.40873047 0.4059375 9.12996094 0.436875 9.87304688 0.46875 C13.97210394 0.69335587 17.24368459 1.17740909 21 3 C21 3.33 21 3.66 21 4 C13.44862068 4.30071865 6.41143564 3.42625566 -1 2 C-0.67 1.34 -0.34 0.68 0 0 Z " fill="#A1A09C" transform="translate(123,264)"/>
<path d="M0 0 C-0.61277612 2.96175123 -1.25372522 4.38058783 -3 7 C-3.75535166 9.21367658 -4.45900589 11.44531982 -5.125 13.6875 C-5.47820312 14.86699219 -5.83140625 16.04648438 -6.1953125 17.26171875 C-6.46085938 18.16535156 -6.72640625 19.06898438 -7 20 C-7.33 20 -7.66 20 -8 20 C-8 17.69 -8 15.38 -8 13 C-7.34 13 -6.68 13 -6 13 C-6.020625 11.7625 -6.04125 10.525 -6.0625 9.25 C-6.05255556 3.63138889 -6.05255556 3.63138889 -5 1 C-3 0 -3 0 0 0 Z " fill="#D6B9A7" transform="translate(245,212)"/>
<path d="M0 0 C1.0625 1.875 1.0625 1.875 2 4 C1.67 4.66 1.34 5.32 1 6 C-2.0625 6.625 -2.0625 6.625 -5 7 C-5.33 6.34 -5.66 5.68 -6 5 C-6.99 4.34 -7.98 3.68 -9 3 C-6.38997624 -0.48003168 -4.1689578 -0.27793052 0 0 Z " fill="#B89782" transform="translate(184,256)"/>
<path d="M0 0 C4.02069425 -0.08765069 8.0411401 -0.14061018 12.0625 -0.1875 C13.7630957 -0.22520508 13.7630957 -0.22520508 15.49804688 -0.26367188 C21.80170344 -0.3188059 26.44284064 -0.07297201 32 3 C32 3.66 32 4.32 32 5 C29.36148807 4.53438025 26.99385673 3.99754269 24.5 3 C19.71390963 1.63254561 15.08016185 1.53614347 10.125 1.375 C9.15046875 1.33632812 8.1759375 1.29765625 7.171875 1.2578125 C4.7814328 1.16406967 2.39098756 1.0783617 0 1 C0 0.67 0 0.34 0 0 Z " fill="#97735A" transform="translate(167,107)"/>
<path d="M0 0 C3 1 3 1 4 3 C4.07065617 5.04055005 4.08421976 7.08334257 4.0625 9.125 C4.05347656 10.22070312 4.04445312 11.31640625 4.03515625 12.4453125 C4.02355469 13.28835937 4.01195312 14.13140625 4 15 C3.01 15.495 3.01 15.495 2 16 C2 13.69 2 11.38 2 9 C1.54625 9.825 1.0925 10.65 0.625 11.5 C0.08875 12.325 -0.4475 13.15 -1 14 C-1.66 14 -2.32 14 -3 14 C-2.68289062 13.44828125 -2.36578125 12.8965625 -2.0390625 12.328125 C-0.87290025 9.71522011 -0.59954289 7.59420998 -0.375 4.75 C-0.30023438 3.85796875 -0.22546875 2.9659375 -0.1484375 2.046875 C-0.09945312 1.37140625 -0.05046875 0.6959375 0 0 Z " fill="#C1A18C" transform="translate(150,228)"/>
<path d="M0 0 C7.26 0 14.52 0 22 0 C21.67 1.98 21.34 3.96 21 6 C20.01 6 19.02 6 18 6 C18 4.68 18 3.36 18 2 C12.06 1.67 6.12 1.34 0 1 C0 0.67 0 0.34 0 0 Z " fill="#6F3932" transform="translate(133,280)"/>
<path d="M0 0 C2.62561109 -0.08074203 5.24875676 -0.1403623 7.875 -0.1875 C8.99455078 -0.22520508 8.99455078 -0.22520508 10.13671875 -0.26367188 C12.3046875 -0.29296875 12.3046875 -0.29296875 16 0 C16.66 0.99 17.32 1.98 18 3 C17 4 17 4 14.625 4.25 C9.54032648 3.89933286 4.86795197 2.45518849 0 1 C0 0.67 0 0.34 0 0 Z " fill="#8A8985" transform="translate(141,264)"/>
<path d="M0 0 C0.66 0 1.32 0 2 0 C3.37494222 2.26461071 4.07991957 3.45654694 3.6875 6.125 C3 8 3 8 2 10 C0.02 10 -1.96 10 -4 10 C-2.68 6.7 -1.36 3.4 0 0 Z " fill="#75583C" transform="translate(195,199)"/>
<path d="M0 0 C7.40466894 1.10282303 11.10918156 5.61011846 16 11 C15.67 11.99 15.34 12.98 15 14 C14.41992188 13.48050781 13.83984375 12.96101562 13.2421875 12.42578125 C7.90938549 7.6631435 7.90938549 7.6631435 2.4375 3.0625 C1.633125 2.381875 0.82875 1.70125 0 1 C0 0.67 0 0.34 0 0 Z " fill="#201B17" transform="translate(193,185)"/>
<path d="M0 0 C2.14342049 2.55169106 3.17451634 4.49030783 4.3125 7.6875 C5.1478125 9.3271875 5.1478125 9.3271875 6 11 C9.08369887 12.05749557 9.08369887 12.05749557 12 12 C12 9.69 12 7.38 12 5 C12.33 5 12.66 5 13 5 C13.33 7.97 13.66 10.94 14 14 C6.74146341 14.60487805 6.74146341 14.60487805 3.625 12.0625 C1.54896272 8.14996821 0.71943222 4.34499197 0 0 Z " fill="#BFA18D" transform="translate(33,222)"/>
<path d="M0 0 C0.33 0 0.66 0 1 0 C1.07347656 1.77117187 1.07347656 1.77117187 1.1484375 3.578125 C1.22348879 5.13543937 1.29903561 6.69272991 1.375 8.25 C1.4059375 9.02730469 1.436875 9.80460938 1.46875 10.60546875 C1.67412459 14.61027316 1.97212353 17.46757002 4 21 C4.0777346 23.33203812 4.08967728 25.66839059 4 28 C2 27 2 27 0.9375 24.1875 C-1.12831052 16.21937371 -1.39861763 8.08090186 0 0 Z " fill="#B58477" transform="translate(52,216)"/>
<path d="M0 0 C3.90590763 -0.17754126 6.68902394 -0.20731737 10 2 C10.33 2.66 10.66 3.32 11 4 C13.3306218 4.35179197 15.66435067 4.68330179 18 5 C19.3530895 5.62559654 20.69241523 6.28414785 22 7 C5.33859127 5.99127171 5.33859127 5.99127171 0 0 Z " fill="#B4937D" transform="translate(105,310)"/>
<path d="M0 0 C0.68835938 0.19529297 1.37671875 0.39058594 2.0859375 0.59179688 C3.76881938 1.07095074 5.4473926 1.56519399 7.125 2.0625 C7.125 2.3925 7.125 2.7225 7.125 3.0625 C0.62821562 3.35780838 -5.4971448 2.23543889 -11.875 1.0625 C-11.875 2.0525 -11.875 3.0425 -11.875 4.0625 C-12.535 4.0625 -13.195 4.0625 -13.875 4.0625 C-13.875 2.4125 -13.875 0.7625 -13.875 -0.9375 C-8.79403905 -2.19586883 -4.90824536 -1.46961998 0 0 Z " fill="#351813" transform="translate(123.875,273.9375)"/>
<path d="M0 0 C2.61125422 0.95745988 3.79164659 1.65621688 5.25 4.0625 C6.2734742 8.07110729 6.16131784 11.8863951 6 16 C5.34 16 4.68 16 4 16 C3.32815382 13.89748139 2.66269032 11.79292237 2 9.6875 C1.443125 7.92986328 1.443125 7.92986328 0.875 6.13671875 C0 3 0 3 0 0 Z " fill="#A47666" transform="translate(49,240)"/>
<path d="M0 0 C0.66 0.33 1.32 0.66 2 1 C1.67 1.99 1.34 2.98 1 4 C0.931009 6.06145107 0.91532273 8.12501401 0.9375 10.1875 C0.94652344 11.27417969 0.95554688 12.36085937 0.96484375 13.48046875 C0.97644531 14.31191406 0.98804688 15.14335937 1 16 C-1.96527758 13.5546615 -2.55582214 11.55397653 -3.1875 7.8125 C-3.34605469 6.91144531 -3.50460938 6.01039063 -3.66796875 5.08203125 C-3.77753906 4.39496094 -3.88710937 3.70789063 -4 3 C-2.68 2.01 -1.36 1.02 0 0 Z " fill="#4E3C29" transform="translate(172,193)"/>
<path d="M0 0 C3.43865477 3.43865477 4.16521971 4.70854013 4.3125 9.375 C4.34988281 10.14585937 4.38726562 10.91671875 4.42578125 11.7109375 C4 14 4 14 0 18 C0 12.06 0 6.12 0 0 Z " fill="#D3B5A2" transform="translate(153,229)"/>
<path d="M0 0 C0.66 0 1.32 0 2 0 C2.9765625 1.7578125 3.953125 3.515625 4.9296875 5.2734375 C6.00897274 7.1612614 6.00897274 7.1612614 8 9 C7.01 9.495 7.01 9.495 6 10 C6.33 10.99 6.66 11.98 7 13 C2.89952317 11.63317439 2.0465061 9.74016633 0 6 C-0.25 2.625 -0.25 2.625 0 0 Z " fill="#A07B63" transform="translate(122,235)"/>
<path d="M0 0 C-1.37418622 4.49733673 -3.31472397 6.19217064 -7 9 C-8.37368345 10.63356951 -9.71937515 12.2925002 -11 14 C-10.71334273 8.123526 -8.08745753 4.93566865 -4 1 C-2 0 -2 0 0 0 Z " fill="#50453E" transform="translate(81,179)"/>
<path d="M0 0 C0.98484375 0.01804688 1.9696875 0.03609375 2.984375 0.0546875 C4.10585937 0.08949219 4.10585937 0.08949219 5.25 0.125 C5.25 0.455 5.25 0.785 5.25 1.125 C3.6 1.125 1.95 1.125 0.25 1.125 C0.25 1.785 0.25 2.445 0.25 3.125 C-3.71 4.115 -7.67 5.105 -11.75 6.125 C-8.81248297 0.24996594 -6.34057225 -0.15096601 0 0 Z " fill="#362E29" transform="translate(90.75,176.875)"/>
<path d="M0 0 C0.33 0.99 0.66 1.98 1 3 C3.01508358 3.73323796 3.01508358 3.73323796 5 4 C5 5.32 5 6.64 5 8 C5.66 8 6.32 8 7 8 C7 8.66 7 9.32 7 10 C7.66 10 8.32 10 9 10 C8.67 11.32 8.34 12.64 8 14 C5.47106706 11.65839543 3.26645809 9.17847268 1.1875 6.4375 C0.74792969 5.85871094 0.30835937 5.27992188 -0.14453125 4.68359375 C-0.42683594 4.12800781 -0.70914063 3.57242187 -1 3 C-0.67 2.01 -0.34 1.02 0 0 Z " fill="#BA9984" transform="translate(74,275)"/>
<path d="M0 0 C-2.34591852 2.7710688 -4.14776201 3.52059284 -7.6875 4.1875 C-8.49574219 4.34605469 -9.30398437 4.50460937 -10.13671875 4.66796875 C-11.05904297 4.83232422 -11.05904297 4.83232422 -12 5 C-11.34 4.67 -10.68 4.34 -10 4 C-10 3.01 -10 2.02 -10 1 C-11.32 0.67 -12.64 0.34 -14 0 C-12.2300132 -0.19532961 -10.45895721 -0.38098882 -8.6875 -0.5625 C-7.70136719 -0.66691406 -6.71523437 -0.77132813 -5.69921875 -0.87890625 C-3 -1 -3 -1 0 0 Z " fill="#56524F" transform="translate(172,263)"/>
<path d="M0 0 C10.395 0.99 10.395 0.99 21 2 C20.67 2.66 20.34 3.32 20 4 C13.24561521 5.6260556 7.43817449 4.56848086 1 2 C0.67 1.34 0.34 0.68 0 0 Z " fill="#EED5C4" transform="translate(127,251)"/>
<path d="M0 0 C2.51622809 0.37555643 3.71610036 0.68625646 5.44921875 2.6015625 C8.24171707 7.16469856 9.66526699 10.64427183 10 16 C8 13 8 13 7.25 10.625 C5.97742933 7.95260158 5.14036901 7.14049886 2.875 5.375 C1.92625 4.59125 0.9775 3.8075 0 3 C0 2.01 0 1.02 0 0 Z " fill="#9D775E" transform="translate(33,186)"/>
<path d="M0 0 C1.67542976 0.28604898 3.34385343 0.61781233 5 1 C5.625 2.875 5.625 2.875 6 5 C5.34 5.66 4.68 6.32 4 7 C1.875 6.625 1.875 6.625 0 6 C-0.38218767 4.34385343 -0.71395102 2.67542976 -1 1 C-0.67 0.67 -0.34 0.34 0 0 Z " fill="#E8E7E5" transform="translate(89,184)"/>
<path d="M0 0 C0.66 0.66 1.32 1.32 2 2 C1.79503906 2.56847656 1.59007812 3.13695312 1.37890625 3.72265625 C0.06184134 7.4974021 -0.98567256 10.88896236 -1.5 14.875 C-2.01529759 18.09560994 -2.42776487 19.09878273 -5 21 C-4.42351925 13.64987044 -2.28953836 6.98575424 0 0 Z " fill="#AE8E79" transform="translate(60,138)"/>
<path d="M0 0 C1.2077558 3.62326739 0.54311128 4.64146369 -1 8 C-1.66 8 -2.32 8 -3 8 C-3.33 6.35 -3.66 4.7 -4 3 C-8.95 2.67 -13.9 2.34 -19 2 C-19 1.67 -19 1.34 -19 1 C-12.65333314 0.41639845 -6.37625222 -0.14491482 0 0 Z " fill="#361814" transform="translate(159,276)"/>
<path d="M0 0 C3.91665108 -0.02904864 7.8332744 -0.04681517 11.75 -0.0625 C12.86117187 -0.07087891 13.97234375 -0.07925781 15.1171875 -0.08789062 C16.18710938 -0.09111328 17.25703125 -0.09433594 18.359375 -0.09765625 C19.34389648 -0.10289307 20.32841797 -0.10812988 21.34277344 -0.11352539 C23.72869514 -0.01159103 25.72164581 0.31696643 28 1 C28 1.99 28 2.98 28 4 C26.68 4.33 25.36 4.66 24 5 C23.67 4.01 23.34 3.02 23 2 C11.615 1.505 11.615 1.505 0 1 C0 0.67 0 0.34 0 0 Z " fill="#75615B" transform="translate(134,263)"/>
<path d="M0 0 C1.2065625 0.0309375 1.2065625 0.0309375 2.4375 0.0625 C2.81968767 1.71864657 3.15145102 3.38707024 3.4375 5.0625 C2.4375 6.0625 2.4375 6.0625 -0.125 6.125 C-1.3315625 6.0940625 -1.3315625 6.0940625 -2.5625 6.0625 C-2.94468767 4.40635343 -3.27645102 2.73792976 -3.5625 1.0625 C-2.5625 0.0625 -2.5625 0.0625 0 0 Z " fill="#E5E4E2" transform="translate(178.5625,190.9375)"/>
<path d="M0 0 C4.29 0.33 8.58 0.66 13 1 C10 3 10 3 7 3 C7 3.66 7 4.32 7 5 C4.69 4.34 2.38 3.68 0 3 C0 2.01 0 1.02 0 0 Z " fill="#777673" transform="translate(108,260)"/>
<path d="M0 0 C0.66 0 1.32 0 2 0 C0.51460715 5.28139679 -3.08672304 9.28054101 -7 13 C-7.66 13 -8.32 13 -9 13 C-9.33 13.99 -9.66 14.98 -10 16 C-11.32 15.67 -12.64 15.34 -14 15 C-13.40832031 14.5875 -12.81664062 14.175 -12.20703125 13.75 C-7.26759685 10.14010341 -3.84701603 6.9332525 -0.97265625 1.50390625 C-0.49119141 0.75947266 -0.49119141 0.75947266 0 0 Z " fill="#B88C7F" transform="translate(176,266)"/>
<path d="M0 0 C1.9375 0.75 1.9375 0.75 4 2 C4.75 4.125 4.75 4.125 5 6 C4.01 5.67 3.02 5.34 2 5 C2 8.3 2 11.6 2 15 C1.67 15 1.34 15 1 15 C0.63355422 13.44033408 0.28239138 11.87707349 -0.0625 10.3125 C-0.25972656 9.44238281 -0.45695313 8.57226562 -0.66015625 7.67578125 C-1.02032279 4.83998724 -0.70909969 2.75210018 0 0 Z " fill="#D6B8A5" transform="translate(148,223)"/>
<path d="M0 0 C0.66 0.66 1.32 1.32 2 2 C-0.97 2 -3.94 2 -7 2 C-7 2.99 -7 3.98 -7 5 C-8.98 4.34 -10.96 3.68 -13 3 C-9.36169862 -0.7964884 -4.95093128 -0.73594924 0 0 Z " fill="#97534B" transform="translate(131,281)"/>
<path d="M0 0 C1.98 0.66 3.96 1.32 6 2 C5.01 2.33 4.02 2.66 3 3 C3.37253906 3.77085937 3.74507813 4.54171875 4.12890625 5.3359375 C4.83853516 6.84027344 4.83853516 6.84027344 5.5625 8.375 C6.27599609 9.87160156 6.27599609 9.87160156 7.00390625 11.3984375 C7.33261719 12.25695312 7.66132812 13.11546875 8 14 C7.67 14.66 7.34 15.32 7 16 C2 7.81818182 2 7.81818182 2 3 C1.01 2.67 0.02 2.34 -1 2 C-0.67 1.34 -0.34 0.68 0 0 Z " fill="#AB816F" transform="translate(92,252)"/>
<path d="M0 0 C0.25 2.75 0.25 2.75 0 6 C-2 8.375 -2 8.375 -4 10 C-4.66 9.67 -5.32 9.34 -6 9 C-4.35 7.02 -2.7 5.04 -1 3 C-3.71224618 4.61268692 -6.37352812 6.24901874 -9 8 C-7.13554727 3.64961029 -5.02378599 0 0 0 Z " fill="#B5947E" transform="translate(248,199)"/>
<path d="M0 0 C0.6875 1.8125 0.6875 1.8125 1 4 C-0.4375 5.75 -0.4375 5.75 -2 7 C-2 6.34 -2 5.68 -2 5 C-3.32 5 -4.64 5 -6 5 C-6 5.66 -6 6.32 -6 7 C-6.66 7 -7.32 7 -8 7 C-7.9375 5.1875 -7.9375 5.1875 -7 3 C-3.4375 1.25 -3.4375 1.25 0 0 Z " fill="#CFB09E" transform="translate(186,260)"/>
<path d="M0 0 C3.63 0.66 7.26 1.32 11 2 C10.01 2.495 10.01 2.495 9 3 C9 3.99 9 4.98 9 6 C5.21213403 5.4739075 2.82847776 4.61896089 0 2 C0 1.34 0 0.68 0 0 Z " fill="#575452" transform="translate(99,257)"/>
<path d="M0 0 C0 0.66 0 1.32 0 2 C0.66 2 1.32 2 2 2 C1.67 3.32 1.34 4.64 1 6 C0.67 5.34 0.34 4.68 0 4 C-4.65052872 3.73067479 -4.65052872 3.73067479 -9 5 C-8.625 3.0625 -8.625 3.0625 -8 1 C-5.29120665 -0.35439668 -2.99066732 -0.06501451 0 0 Z " fill="#D0B19F" transform="translate(96,246)"/>
<path d="M0 0 C0 3.77944236 -1.15650596 5.06286354 -3.3125 8.125 C-3.92738281 9.01445312 -4.54226562 9.90390625 -5.17578125 10.8203125 C-7 13 -7 13 -10 14 C-10 11 -10 11 -8.25 9.1875 C-7.5075 8.465625 -6.765 7.74375 -6 7 C-5.29875 5.948125 -4.5975 4.89625 -3.875 3.8125 C-2 1 -2 1 0 0 Z " fill="#C19B8A" transform="translate(207,267)"/>
<path d="M0 0 C-0.33 1.32 -0.66 2.64 -1 4 C-4.93905597 5.14889133 -8.93565958 5.52582695 -13 6 C-10.87838666 3.87838666 -9.2266841 3.07013751 -6.5 1.875 C-5.7059375 1.52179687 -4.911875 1.16859375 -4.09375 0.8046875 C-2 0 -2 0 0 0 Z " fill="#3F3C39" transform="translate(144,20)"/>
<path d="M0 0 C0.99 0.33 1.98 0.66 3 1 C-0.16952847 4.26008643 -3.39937989 7.22237877 -7 10 C-7 6 -7 6 -5.57421875 4.26171875 C-4.64029297 3.48248047 -4.64029297 3.48248047 -3.6875 2.6875 C-2.76517578 1.88892578 -2.76517578 1.88892578 -1.82421875 1.07421875 C-0.92123047 0.54248047 -0.92123047 0.54248047 0 0 Z " fill="#D7BAA8" transform="translate(182,285)"/>
<path d="M0 0 C0.33 0.66 0.66 1.32 1 2 C-1.97 2 -4.94 2 -8 2 C-8 1.34 -8 0.68 -8 0 C-4.69693408 -1.10102197 -3.28414305 -0.95067299 0 0 Z M7 -2 C7.33 -1.34 7.66 -0.68 8 0 C5.36 0 2.72 0 0 0 C0 -0.33 0 -0.66 0 -1 C3.465 -1.495 3.465 -1.495 7 -2 Z " fill="#9A745C" transform="translate(140,321)"/>
<path d="M0 0 C3.3 0.33 6.6 0.66 10 1 C10 1.33 10 1.66 10 2 C3.49616858 3.06185003 -2.54689303 3.56438957 -9 2 C-9 1.67 -9 1.34 -9 1 C-2.25 0.875 -2.25 0.875 0 2 C0 1.34 0 0.68 0 0 Z " fill="#BD9D89" transform="translate(137,297)"/>
<path d="M0 0 C0.55171875 0.31710938 1.1034375 0.63421875 1.671875 0.9609375 C4.28477989 2.12709975 6.40579002 2.40045711 9.25 2.625 C10.14203125 2.69976562 11.0340625 2.77453125 11.953125 2.8515625 C12.96632812 2.92503906 12.96632812 2.92503906 14 3 C14 3.33 14 3.66 14 4 C6.08 4.495 6.08 4.495 -2 5 C-2 4.01 -2 3.02 -2 2 C-1.34 2 -0.68 2 0 2 C0 1.34 0 0.68 0 0 Z " fill="#765F46" transform="translate(174,206)"/>
<path d="M0 0 C6.93 0.495 6.93 0.495 14 1 C13.67 1.66 13.34 2.32 13 3 C7.52479339 4.27754821 7.52479339 4.27754821 5 4 C3.35 2.68 1.7 1.36 0 0 Z " fill="#B5736D" transform="translate(127,285)"/>
<path d="M0 0 C2.82863975 5.3363834 4.37974335 10.92410633 4 17 C3.33333333 15.66666667 2.66666667 14.33333333 2 13 C1.4740625 12.08734375 1.4740625 12.08734375 0.9375 11.15625 C-0.14175999 8.67395203 -0.20416324 6.94155007 -0.125 4.25 C-0.10695312 3.45078125 -0.08890625 2.6515625 -0.0703125 1.828125 C-0.04710937 1.22484375 -0.02390625 0.6215625 0 0 Z " fill="#BE8D81" transform="translate(53,224)"/>
<path d="M0 0 C0.33 0.99 0.66 1.98 1 3 C-0.0828125 3.61875 -0.0828125 3.61875 -1.1875 4.25 C-3.97969862 5.98736803 -6.47012585 7.90381857 -9 10 C-8.67 8.68 -8.34 7.36 -8 6 C-7.34 6 -6.68 6 -6 6 C-6 5.01 -6 4.02 -6 3 C-2.66666667 0 -2.66666667 0 0 0 Z " fill="#D6B9A7" transform="translate(247,196)"/>
<path d="M0 0 C3.05849168 2.75264252 4.87391379 5.00751252 6 9 C5.67 9.99 5.34 10.98 5 12 C3.96951963 10.3811004 2.95085322 8.75467511 1.9375 7.125 C1.36902344 6.22007812 0.80054687 5.31515625 0.21484375 4.3828125 C-0.18605469 3.59648437 -0.58695312 2.81015625 -1 2 C-0.67 1.34 -0.34 0.68 0 0 Z " fill="#191411" transform="translate(112,187)"/>
<path d="M0 0 C2.64 0.66 5.28 1.32 8 2 C8 2.66 8 3.32 8 4 C10.97 4 13.94 4 17 4 C17 4.33 17 4.66 17 5 C13.04 5 9.08 5 5 5 C4.67 4.01 4.34 3.02 4 2 C1.98491642 1.26676204 1.98491642 1.26676204 0 1 C0 0.67 0 0.34 0 0 Z " fill="#D6BAA8" transform="translate(128,248)"/>
<path d="M0 0 C1.5 1.125 1.5 1.125 3 3 C3.3125 6.0625 3.3125 6.0625 3 9 C2.34 9.66 1.68 10.32 1 11 C-0.62950412 6.87831311 -1.26264601 4.29299643 0 0 Z " fill="#CB9C90" transform="translate(55,221)"/>
<path d="M0 0 C2.875 0.3125 2.875 0.3125 6 1 C6.66 1.99 7.32 2.98 8 4 C7.01 4 6.02 4 5 4 C5 5.65 5 7.3 5 9 C2.3534665 6.3534665 1.40058003 3.43778736 0 0 Z " fill="#E7CEBE" transform="translate(36,178)"/>
<path d="M0 0 C1.30230734 3.00646952 0.96485975 4.09355667 -0.21484375 7.234375 C-0.78332031 8.39453125 -1.35179688 9.5546875 -1.9375 10.75 C-2.50339844 11.92046875 -3.06929687 13.0909375 -3.65234375 14.296875 C-4.09707031 15.18890625 -4.54179688 16.0809375 -5 17 C-6.30230734 13.99353048 -5.96485975 12.90644333 -4.78515625 9.765625 C-4.21667969 8.60546875 -3.64820313 7.4453125 -3.0625 6.25 C-2.21365234 4.49429688 -2.21365234 4.49429688 -1.34765625 2.703125 C-0.90292969 1.81109375 -0.45820312 0.9190625 0 0 Z " fill="#9F7F69" transform="translate(67,117)"/>
<path d="M0 0 C1.7936743 1.1217963 3.5848773 2.24754483 5.375 3.375 C6.37273437 4.00148438 7.37046875 4.62796875 8.3984375 5.2734375 C11 7 11 7 13 9 C9.65626525 8.44271087 6.96687001 7.64826111 4 6 C4 5.34 4 4.68 4 4 C2.68 3.67 1.36 3.34 0 3 C0 2.01 0 1.02 0 0 Z " fill="#BD9083" transform="translate(109,277)"/>
<path d="M0 0 C0.33 0 0.66 0 1 0 C1.144375 1.134375 1.28875 2.26875 1.4375 3.4375 C1.61171478 6.80777201 1.61171478 6.80777201 3 8 C3.04080783 9.99958364 3.04254356 12.00045254 3 14 C2.34 14 1.68 14 1 14 C-0.512545 8.83955235 -1.33500455 5.34001821 0 0 Z " fill="#B8927F" transform="translate(68,262)"/>
<path d="M0 0 C0.93065133 2.60582371 1.14917407 3.64198224 0.0625 6.25 C-0.4634375 7.11625 -0.4634375 7.11625 -1 8 C0.65 7.67 2.3 7.34 4 7 C3.01 8.485 3.01 8.485 2 10 C-0.625 10.1875 -0.625 10.1875 -3 10 C-3.36629408 5.72656908 -2.40814077 3.51187196 0 0 Z " fill="#CFB29E" transform="translate(232,238)"/>
<path d="M0 0 C0.33 0 0.66 0 1 0 C1.27672202 1.91299138 1.52042815 3.83077936 1.75 5.75 C1.88921875 6.81734375 2.0284375 7.8846875 2.171875 8.984375 C2 12 2 12 -2 16 C-1.34 10.72 -0.68 5.44 0 0 Z " fill="#977B67" transform="translate(233,204)"/>
<path d="M0 0 C0.99 0.33 1.98 0.66 3 1 C3 1.66 3 2.32 3 3 C4.32 3.33 5.64 3.66 7 4 C7 4.99 7 5.98 7 7 C6.01 7 5.02 7 4 7 C0 2.65714286 0 2.65714286 0 0 Z " fill="#C09E8B" transform="translate(104,280)"/>
<path d="M0 0 C0.65234375 1.765625 0.65234375 1.765625 1 4 C0.00390625 5.921875 0.00390625 5.921875 -1.4375 7.75 C-2.14712891 8.67039063 -2.14712891 8.67039063 -2.87109375 9.609375 C-3.24363281 10.06828125 -3.61617187 10.5271875 -4 11 C-4.65234375 9.234375 -4.65234375 9.234375 -5 7 C-4.00390625 5.078125 -4.00390625 5.078125 -2.5625 3.25 C-2.08941406 2.63640625 -1.61632812 2.0228125 -1.12890625 1.390625 C-0.75636719 0.93171875 -0.38382813 0.4728125 0 0 Z " fill="#382F29" transform="translate(166,194)"/>
<path d="M0 0 C-3.81346796 2.99629625 -7.23814289 4.97960205 -12 6 C-9.56043956 1.24285714 -9.56043956 1.24285714 -7.125 0.1875 C-4.73674713 -0.02322819 -2.39624286 -0.0665623 0 0 Z " fill="#100E0B" transform="translate(186,185)"/>
<path d="M0 0 C5.28 0.33 10.56 0.66 16 1 C16 1.33 16 1.66 16 2 C10.16524985 2.85330338 5.55139349 3.48351814 0 1 C0 0.67 0 0.34 0 0 Z " fill="#B38877" transform="translate(115,257)"/>
<path d="M0 0 C0.99 0 1.98 0 3 0 C3.02693575 2.12493141 3.04636628 4.24995912 3.0625 6.375 C3.07410156 7.55835938 3.08570313 8.74171875 3.09765625 9.9609375 C3 13 3 13 2 15 C1.34 15 0.68 15 0 15 C0.33 14.01 0.66 13.02 1 12 C1.23294845 5.91431338 1.23294845 5.91431338 0 0 Z " fill="#D5B9A6" transform="translate(43,182)"/>
<path d="M0 0 C0.33 0 0.66 0 1 0 C1.28571429 8.57142857 1.28571429 8.57142857 -1 12 C-1.99 11.67 -2.98 11.34 -4 11 C-3.67 10.34 -3.34 9.68 -3 9 C-2.34 9 -1.68 9 -1 9 C-1.020625 7.88625 -1.04125 6.7725 -1.0625 5.625 C-1 2 -1 2 0 0 Z " fill="#CD9F92" transform="translate(218,232)"/>
<path d="M0 0 C0.99 0.33 1.98 0.66 3 1 C4.04449911 4.13349732 3.93423645 4.98968256 3 8 C2.34 8 1.68 8 1 8 C-1.125 3.375 -1.125 3.375 0 0 Z " fill="#968275" transform="translate(209,196)"/>
<path d="M0 0 C0.33 1.32 0.66 2.64 1 4 C0.34 4 -0.32 4 -1 4 C-1.12375 4.763125 -1.2475 5.52625 -1.375 6.3125 C-2 9 -2 9 -4 12 C-4.66 12 -5.32 12 -6 12 C-4 8 -2 4 0 0 Z " fill="#D8BBA8" transform="translate(174,279)"/>
<path d="M0 0 C3.96 0 7.92 0 12 0 C12 0.33 12 0.66 12 1 C8.92382812 1.29296875 8.92382812 1.29296875 5.84765625 1.5859375 C5.23792969 1.72257812 4.62820312 1.85921875 4 2 C3.67 2.66 3.34 3.32 3 4 C1.68 3.34 0.36 2.68 -1 2 C-0.67 1.34 -0.34 0.68 0 0 Z " fill="#7B4038" transform="translate(116,279)"/>
<path d="M0 0 C2.3828125 0.0234375 2.3828125 0.0234375 5.125 0.375 C6.03507812 0.48585938 6.94515625 0.59671875 7.8828125 0.7109375 C8.93082031 0.85402344 8.93082031 0.85402344 10 1 C10 1.33 10 1.66 10 2 C7.69 2 5.38 2 3 2 C3 2.66 3 3.32 3 4 C0.525 3.01 0.525 3.01 -2 2 C-1.34 1.34 -0.68 0.68 0 0 Z " fill="#66342B" transform="translate(113,277)"/>
<path d="M0 0 C1.98 0 3.96 0 6 0 C6.33 0.66 6.66 1.32 7 2 C6.05125 2.28875 5.1025 2.5775 4.125 2.875 C0.94788422 3.76825109 0.94788422 3.76825109 -1 6 C-1.99 5.67 -2.98 5.34 -4 5 C-3.01 4.34 -2.02 3.68 -1 3 C-0.67 2.01 -0.34 1.02 0 0 Z " fill="#C4A591" transform="translate(176,254)"/>
<path d="M0 0 C-0.66 1.32 -1.32 2.64 -2 4 C-5.3 3.34 -8.6 2.68 -12 2 C-12 1.67 -12 1.34 -12 1 C-10.37512529 0.83211627 -8.75009558 0.66573213 -7.125 0.5 C-6.22007812 0.4071875 -5.31515625 0.314375 -4.3828125 0.21875 C-2 0 -2 0 0 0 Z " fill="#967057" transform="translate(147,245)"/>
<path d="M0 0 C0.66 0.33 1.32 0.66 2 1 C2.4140625 3.50390625 2.4140625 3.50390625 2.625 6.5625 C2.69976562 7.57441406 2.77453125 8.58632812 2.8515625 9.62890625 C2.92503906 10.80259766 2.92503906 10.80259766 3 12 C-0.57692308 7.38461538 -0.57692308 7.38461538 -1 4 C-0.5625 1.75 -0.5625 1.75 0 0 Z " fill="#5A4734" transform="translate(196,191)"/>
<path d="M0 0 C2.72869407 0.03287583 5.2966618 0.56397771 8 1 C8 4 8 4 7 6 C6.62875 5.525625 6.2575 5.05125 5.875 4.5625 C3.37353038 2.47794198 1.18406582 2.35378509 -2 2 C-1.34 1.34 -0.68 0.68 0 0 Z " fill="#4D3610" transform="translate(184,189)"/>
<path d="M0 0 C3.15133488 1.83827868 6.11964908 3.75972706 9 6 C8.67 7.32 8.34 8.64 8 10 C7.59007812 9.50628906 7.18015625 9.01257813 6.7578125 8.50390625 C6.21898437 7.86324219 5.68015625 7.22257812 5.125 6.5625 C4.59132812 5.92441406 4.05765625 5.28632812 3.5078125 4.62890625 C2.0777243 2.89194996 2.0777243 2.89194996 0 2 C0 1.34 0 0.68 0 0 Z " fill="#BC9D88" transform="translate(213,118)"/>
<path d="M0 0 C1.43836751 0.11458693 2.87570966 0.24209116 4.3125 0.375 C5.51326172 0.47941406 5.51326172 0.47941406 6.73828125 0.5859375 C9 1 9 1 12 3 C10.56344146 3.08131463 9.1255517 3.13933559 7.6875 3.1875 C6.48673828 3.23970703 6.48673828 3.23970703 5.26171875 3.29296875 C2.52148416 2.93801608 1.70828921 2.10633718 0 0 Z " fill="#926D53" transform="translate(119,102)"/>
<path d="M0 0 C0.33 0 0.66 0 1 0 C1.16789126 2.43742131 1.33436133 4.87492546 1.5 7.3125 C1.54769531 8.00279297 1.59539062 8.69308594 1.64453125 9.40429688 C1.83879489 12.27662359 2 15.12013788 2 18 C1.34 17.67 0.68 17.34 0 17 C0 11.39 0 5.78 0 0 Z " fill="#8A6B5C" transform="translate(228,204)"/>
<path d="M0 0 C-1.0725 0.4125 -2.145 0.825 -3.25 1.25 C-6.52265074 2.63739149 -8.65517162 4.27999908 -11 7 C-10.875 4.6875 -10.875 4.6875 -10 2 C-6.48038665 -0.3464089 -4.05504805 -1.71559725 0 0 Z " fill="#74675F" transform="translate(179,150)"/>
<path d="M0 0 C0.66 0 1.32 0 2 0 C0.64978174 4.41889613 -1.26115668 6.34345343 -5 9 C-3.7580393 5.56072421 -2.44259716 2.74792181 0 0 Z " fill="#2E2B28" transform="translate(180,47)"/>
<path d="M0 0 C0.99 0 1.98 0 3 0 C2.67 3.63 2.34 7.26 2 11 C0 9 0 9 -0.1953125 6.8359375 C-0.17210937 6.02382812 -0.14890625 5.21171875 -0.125 4.375 C-0.10695312 3.55773437 -0.08890625 2.74046875 -0.0703125 1.8984375 C-0.04710937 1.27195313 -0.02390625 0.64546875 0 0 Z " fill="#B58578" transform="translate(56,244)"/>
<path d="M0 0 C0.66 0 1.32 0 2 0 C2.99 1.98 3.98 3.96 5 6 C4.34 6 3.68 6 3 6 C2.34 6.66 1.68 7.32 1 8 C-0.35439668 5.29120665 -0.06501451 2.99066732 0 0 Z " fill="#A8856E" transform="translate(122,235)"/>
<path d="M0 0 C0.99 0.33 1.98 0.66 3 1 C2.34 1 1.68 1 1 1 C0.01 3.97 -0.98 6.94 -2 10 C-2.33 10 -2.66 10 -3 10 C-2.88637738 8.5199159 -2.75877092 7.04089926 -2.625 5.5625 C-2.55539063 4.73878906 -2.48578125 3.91507813 -2.4140625 3.06640625 C-2.27742187 2.38449219 -2.14078125 1.70257813 -2 1 C-1.34 0.67 -0.68 0.34 0 0 Z " fill="#CFB29E" transform="translate(242,212)"/>
<path d="M0 0 C0.66 0.33 1.32 0.66 2 1 C2.625 3.5625 2.625 3.5625 3 6 C1.02 6 -0.96 6 -3 6 C-2.01 4.02 -1.02 2.04 0 0 Z " fill="#916E4C" transform="translate(194,203)"/>
<path d="M0 0 C1.32 0.33 2.64 0.66 4 1 C5.125 4.75 5.125 4.75 4 7 C2 5.1875 2 5.1875 0 3 C0 2.01 0 1.02 0 0 Z " fill="#A58069" transform="translate(33,186)"/>
<path d="M0 0 C0.33 0.66 0.66 1.32 1 2 C-1 5 -1 5 -4.125 5.6875 C-5.07375 5.790625 -6.0225 5.89375 -7 6 C-3.375 1.125 -3.375 1.125 0 0 Z " fill="#312E2A" transform="translate(159,27)"/>
<path d="M0 0 C0.66 0.33 1.32 0.66 2 1 C0.25 6.75 0.25 6.75 -2 9 C-1.125 1.125 -1.125 1.125 0 0 Z " fill="#D8B7A7" transform="translate(177,268)"/>
<path d="M0 0 C2.475 0.495 2.475 0.495 5 1 C5 1.99 5 2.98 5 4 C3.68 4 2.36 4 1 4 C0.67 2.68 0.34 1.36 0 0 Z " fill="#7C7B78" transform="translate(153,264)"/>
<path d="M0 0 C0.33 0 0.66 0 1 0 C1.33 2.97 1.66 5.94 2 9 C-0.31 9 -2.62 9 -5 9 C-4.0409375 8.7215625 -4.0409375 8.7215625 -3.0625 8.4375 C-0.57873787 7.05753944 -0.57873787 7.05753944 -0.25 3.375 C-0.1675 2.26125 -0.085 1.1475 0 0 Z " fill="#A37F68" transform="translate(45,227)"/>
<path d="M0 0 C2.46800047 1.15173355 4.04783565 2.04783565 6 4 C6.66 4 7.32 4 8 4 C8 4.66 8 5.32 8 6 C5.6875 6.25 5.6875 6.25 3 6 C1.02389614 3.95575462 0 2.8823175 0 0 Z " fill="#D1B3A0" transform="translate(36,228)"/>
<path d="M0 0 C0 1.32 0 2.64 0 4 C-4.455 3.01 -4.455 3.01 -9 2 C-9 1.67 -9 1.34 -9 1 C-5.94152152 0.45627049 -3.11227195 0 0 0 Z " fill="#B18B6C" transform="translate(106,202)"/>
<path d="M0 0 C0.33 0 0.66 0 1 0 C1 1.98 1 3.96 1 6 C-0.98 6.99 -0.98 6.99 -3 8 C-2.37240135 5.07120629 -1.41377341 2.63904371 0 0 Z " fill="#D3B3A1" transform="translate(63,192)"/>
<path d="M0 0 C1.98 0 3.96 0 6 0 C6.33 0.66 6.66 1.32 7 2 C4.03 2.66 1.06 3.32 -2 4 C-1.34 2.68 -0.68 1.36 0 0 Z " fill="#060404" transform="translate(81,179)"/>
<path d="M0 0 C4.31392226 0.4793247 6.16569547 1.7457985 9 5 C8.67 5.66 8.34 6.32 8 7 C5.18060883 4.79020692 2.46941056 2.59937954 0 0 Z " fill="#9A755D" transform="translate(211,116)"/>
<path d="M0 0 C6.875 3.625 6.875 3.625 8 7 C5.05043472 5.63055898 2.47531189 4.12169591 0 2 C0 1.34 0 0.68 0 0 Z " fill="#A9866F" transform="translate(88,297)"/>
<path d="M0 0 C-3 2 -3 2 -6 2 C-6 2.66 -6 3.32 -6 4 C-6.99 3.67 -7.98 3.34 -9 3 C-9 2.34 -9 1.68 -9 1 C-5.8035914 -0.06546953 -3.34252724 -0.07427838 0 0 Z " fill="#837E7A" transform="translate(121,261)"/>
<path d="M0 0 C0.66 0 1.32 0 2 0 C1.5206753 4.31392226 0.2542015 6.16569547 -3 9 C-3 5.41483414 -1.88021538 3.97700769 0 1 C0 0.67 0 0.34 0 0 Z " fill="#BD8E80" transform="translate(213,255)"/>
<path d="M0 0 C0.66 0 1.32 0 2 0 C2.33 1.65 2.66 3.3 3 5 C2.01 5.66 1.02 6.32 0 7 C0 5.68 0 4.36 0 3 C-0.66 2.67 -1.32 2.34 -2 2 C-1.34 1.34 -0.68 0.68 0 0 Z " fill="#967559" transform="translate(106,199)"/>
<path d="M0 0 C0 4.38968456 -2.12805101 5.76905739 -5 9 C-5.33 8.01 -5.66 7.02 -6 6 C-4 4 -2 2 0 0 Z " fill="#63584F" transform="translate(77,149)"/>
</svg>
